<svg xmlns="http://www.w3.org/2000/svg" viewBox="0 0 586 247" role="img" aria-label="New Style Hair"><path fill="currentColor" fill-rule="evenodd" d="M288.43 0.18C288.43 0.18 289.46 0.04 289.46 0.04C290.77 0.32 289.92 0.75 291 0.75C291.79 0.75 292.46 0.03 293.25 0C293.25 0 310.5 0 310.5 0C312.6 0.07 311.13 1.2 313.25 0.75C313.25 0.75 314.75 0 314.75 0C315.59 0.06 315.83 0.97 316.61 1.14C318.97 1.66 321.34 2.2 323.68 2.82C342.63 7.83 314.68 -0.12 330.25 4.75C330.25 4.75 331.39 4.86 331.39 4.86C331.39 4.86 332.21 5.54 332.21 5.54C333.46 6.16 335.1 6.3 336.32 6.93C336.32 6.93 337.25 7.75 337.25 7.75C337.25 7.75 341.75 10 341.75 10C343.31 10.86 344.72 12.07 346.21 13.04C346.21 13.04 347.25 13.5 347.25 13.5C347.25 13.5 349.61 15.64 349.61 15.64C349.61 15.64 351.39 16.61 351.39 16.61C352.13 17.21 352.43 18.22 353.11 18.89C353.74 19.52 354.68 19.82 355.25 20.5C355.25 20.5 356.04 21.96 356.04 21.96C370.54 42.44 355.9 20.55 360.07 27.93C361.46 30.38 362.64 32.65 363.64 35.36C363.64 35.36 363.89 36.61 363.89 36.61C363.89 36.61 364.54 37.39 364.54 37.39C364.54 37.39 364.25 39.25 364.25 39.25C364.74 45.45 365.54 41.05 365 47.5C365 47.5 364.32 51.32 364.32 51.32C364.34 53.47 364.88 51.82 364.64 53.14C364.64 53.14 363.82 54.57 363.82 54.57C363.82 54.57 363.68 55.68 363.68 55.68C363.68 55.68 362.32 58.57 362.32 58.57C360.11 64.11 356.59 69.11 352.43 73.43C352.43 73.43 348.68 76.43 348.68 76.43C348.68 76.43 347.46 77.96 347.46 77.96C347.46 77.96 346.21 78.46 346.21 78.46C346.21 78.46 344.29 80.04 344.29 80.04C342.18 81.43 339.76 82.87 337.5 84C336.33 84.58 335.19 85.22 334 85.75C334 85.75 329.89 87.39 329.89 87.39C329.43 87.89 329.7 88.84 329.57 89.32C329.57 89.32 328.39 92.64 328.39 92.64C327.95 93.63 326.95 95.9 325.71 96.71C325.71 96.71 322.5 98.5 322.5 98.5C322.5 98.5 321.64 99.32 321.64 99.32C321.28 99.52 320.99 99.09 320.64 99.11C320.64 99.11 316.75 99.25 316.75 99.25C316.2 99.31 315.57 99.95 315.14 99.61C313.31 98.15 311.23 96.92 309.71 95.04C308.54 93.57 309.17 93.51 307.89 92.86C307.29 92.55 306.21 92.99 305.75 93C305.75 93 291.75 93 291.75 93C291.75 93 288.25 92.5 288.25 92.5C286.82 92.77 287.29 93.64 286.82 95.07C286.82 95.07 286 97 286 97C283.91 100.71 280.06 103.06 275.75 103C272.43 102.95 270.03 101.08 267.93 98.82C266.65 97.45 266.49 97.03 265.79 95.46C265.46 94.75 265.36 95.1 265.36 94.54C265.3 87.39 266.87 102.3 265.75 91C265.75 91 265.36 89.29 265.36 89.29C265.47 88.47 267 87.55 266 86.5C263.33 83.69 264.27 86.09 262.43 85.07C262.43 85.07 261.5 84.25 261.5 84.25C261.5 84.25 257.46 82.29 257.46 82.29C257.46 82.29 256 81 256 81C254.54 79.91 252.85 78.98 251.43 77.82C249.37 76.15 247.52 73.9 245.64 72.11C245.64 72.11 244.46 71.29 244.46 71.29C244.46 71.29 243.5 69.5 243.5 69.5C243.5 69.5 239.96 64.54 239.96 64.54C239.96 64.54 239.46 63.04 239.46 63.04C239.1 62.25 238.72 61.46 238.29 60.71C238.29 60.71 237.5 59.75 237.5 59.75C237.5 59.75 237.43 58.32 237.43 58.32C234.62 47.63 237.45 61.1 236.14 53.36C236.14 53.36 235.36 51.64 235.36 51.64C234.8 49.75 234.97 47.34 235 45.5C235.05 42.15 235.39 44.52 236.18 41.68C236.18 41.68 236.36 39.61 236.36 39.61C236.57 38.66 237.17 37.83 237.39 36.89C237.39 36.89 237.75 35 237.75 35C238.18 33.92 238.91 32.98 239.46 31.96C239.46 31.96 239.96 30.46 239.96 30.46C239.96 30.46 240.75 29.5 240.75 29.5C244.14 24.54 246.52 21.62 250.82 17.57C250.82 17.57 252.64 15.64 252.64 15.64C257.68 12.03 261.19 9.99 266.54 7.29C293.76 -6.51 267.33 7.24 276.64 3.64C276.64 3.64 278.39 2.64 278.39 2.64C278.39 2.64 280.36 2.61 280.36 2.61C297.15 -0.05 274.21 3.33 285.14 1.14C285.14 1.14 287.11 1.11 287.11 1.11C288.91 0.86 286.59 0.72 288.43 0.18ZM301.54 9.61C301.54 9.61 302.36 9.89 302.36 9.89C302.36 9.89 304.21 12.29 304.21 12.29C304.21 12.29 305 14.5 305 14.5C305.64 15.91 305.85 16.38 306.39 18.11C307 20.04 306.89 20.63 308.43 21.32C309.17 21.66 310.3 21.13 310.89 20.89C311.98 20.46 313.11 20.14 314.18 19.68C314.18 19.68 315.57 18.82 315.57 18.82C315.57 18.82 316.89 18.64 316.89 18.64C316.89 18.64 320.89 17.39 320.89 17.39C320.89 17.39 322.54 16.61 322.54 16.61C322.54 16.61 323.75 16.75 323.75 16.75C326.7 16.35 329.24 15.63 332.25 15.25C334.12 15.02 337.88 15.97 338.82 16.18C342.47 17 345.71 19.24 347.21 22.79C347.9 24.41 348.14 27.87 347.71 29.46C346.57 33.76 346.4 31.79 345 34.25C344 36 344.24 35.42 342.39 37.14C339.19 40.13 335.46 42.65 331.43 44.43C331.43 44.43 323.39 47.39 323.39 47.39C323.39 47.39 321.86 47.61 321.86 47.61C319.18 48.68 320.37 48.95 318.43 48.5C318.8 49.12 318.9 49.87 319.25 50.5C319.25 50.5 320.14 51.36 320.14 51.36C320.14 51.36 320.79 52.71 320.79 52.71C320.79 52.71 322.5 54.75 322.5 54.75C322.5 54.75 323.25 56.5 323.25 56.5C324.51 58.55 325.85 60.55 327.21 62.54C328.97 65.08 330.69 66.55 332.93 68.57C334.51 69.99 338.69 72.51 340.68 70.43C342.34 68.69 342.03 66.57 342.36 64.36C342.42 63.89 342.77 62.14 343.29 61.54C343.29 61.54 343.71 61.36 343.71 61.36C343.71 61.36 344.32 61.68 344.32 61.68C344.97 62.24 346.02 63.95 345.93 64.82C345.93 64.82 345.68 66.43 345.68 66.43C344.39 70.04 341.07 77.35 335.93 75.82C332.39 74.77 330.24 72.45 327.82 69.93C327.82 69.93 326.75 69.25 326.75 69.25C326.75 69.25 325.79 67.46 325.79 67.46C323.9 64.8 321.75 62.27 319.96 59.54C319.96 59.54 319.57 58.43 319.57 58.43C319.57 58.43 318.75 57.5 318.75 57.5C317.99 56.22 317.53 54.77 316.75 53.5C316.61 53.27 316.19 53.33 316.04 53.11C316.04 53.11 315.5 53.5 315.5 53.5C315.5 53.5 313.36 58.61 313.36 58.61C311.46 63.65 315.64 54.37 312.64 61.14C312.64 61.14 311.64 63.14 311.64 63.14C311.64 63.14 311.54 64.79 311.54 64.79C311.54 64.79 310.96 65.46 310.96 65.46C310.63 66.14 310.37 66.86 310.04 67.54C310.04 67.54 308.96 69.96 308.96 69.96C308.61 70.64 307.15 71.96 307.71 73.04C308.6 74.74 311.48 76.24 313.32 76.43C313.32 76.43 314.64 76.36 314.64 76.36C314.64 76.36 316.18 77.32 316.18 77.32C316.18 77.32 317.89 77.36 317.89 77.36C317.89 77.36 319.18 77.82 319.18 77.82C319.18 77.82 321.07 78.18 321.07 78.18C322.59 78.95 324.93 79.54 326.21 80.79C326.77 81.32 326.98 82.97 328.07 83.18C329.49 83.45 331.98 82.29 332.93 81.43C332.93 81.43 333.61 80.68 333.61 80.68C333.61 80.68 334.57 80.57 334.57 80.57C334.57 80.57 336.96 79.46 336.96 79.46C342.81 76.13 347.77 72.18 352.07 67.07C354.37 64.34 350.46 70.58 354.75 63.75C354.75 63.75 355.75 61.75 355.75 61.75C355.75 61.75 357.43 59.18 357.43 59.18C357.43 59.18 357.86 57.36 357.86 57.36C358.13 56.61 359.64 53.67 359.71 52.46C359.71 52.46 359.39 50.57 359.39 50.57C360.03 47.73 360.9 50.99 360.75 47.25C360.73 46.63 359.9 45.86 360.11 45.11C360.35 44.23 360.78 43.97 360.64 43.11C360.64 43.11 360.25 41.75 360.25 41.75C360.25 41.75 359.36 40.39 359.36 40.39C359.26 39.69 359.81 38.99 359.71 38.29C359.71 38.29 358.89 36.11 358.89 36.11C358.89 36.11 358.64 34.86 358.64 34.86C358.64 34.86 357.71 33.54 357.71 33.54C357.71 33.54 357.21 31.79 357.21 31.79C357.21 31.79 356.25 30.25 356.25 30.25C355.36 28.52 356.05 28.95 354.75 27.25C354.75 27.25 353.18 25.57 353.18 25.57C353.18 25.57 351.57 23.18 351.57 23.18C348.35 20.04 348.92 20.26 345 17.25C339.38 12.93 344.13 16.92 338.79 13.21C338.79 13.21 337.46 12.79 337.46 12.79C335.95 12.05 334.5 10.95 332.96 10.29C318.34 3.96 332.17 9.86 326.43 8.07C324.82 7.57 322.86 6.57 321.14 6.36C321.14 6.36 319.32 6.43 319.32 6.43C319.32 6.43 317.89 5.86 317.89 5.86C317.89 5.86 315.86 5.64 315.86 5.64C313.16 5.09 310.29 4.45 307.5 4.25C307.5 4.25 304.57 4.32 304.57 4.32C302.48 4.62 305.04 4.97 303 5C303 5 300.57 4.93 300.57 4.93C300.57 4.93 299.18 4.14 299.18 4.14C295.11 4.14 296.28 4.4 291.25 5C290.08 5.14 290.16 4.83 289.14 5.14C289.14 5.14 287.89 5.64 287.89 5.64C287.89 5.64 286.36 5.61 286.36 5.61C286.36 5.61 284.89 6.14 284.89 6.14C284.89 6.14 282.14 6.39 282.14 6.39C279.06 6.96 279.8 7.34 276.57 8.32C276.57 8.32 275.39 8.39 275.39 8.39C275.39 8.39 274.36 9.11 274.36 9.11C274.36 9.11 272.61 9.36 272.61 9.36C272.61 9.36 270.71 10.46 270.71 10.46C270.71 10.46 268.04 11.29 268.04 11.29C263.34 13.43 258.99 16.28 254.93 19.43C254.93 19.43 254.18 20.43 254.18 20.43C254.18 20.43 252.18 21.93 252.18 21.93C249.25 24.44 252.04 22.35 249.39 25.14C249.39 25.14 247.68 26.68 247.68 26.68C247.68 26.68 246.5 28.75 246.5 28.75C246.5 28.75 244.79 31.04 244.79 31.04C244.79 31.04 244.29 32.54 244.29 32.54C243.23 34.35 243.01 33.78 242.25 36C242.25 36 241.86 38.61 241.86 38.61C240.42 43.89 241.18 34.33 240 45C240 45 240 50 240 50C240.03 53.14 241.54 55.33 242.43 58.07C242.43 58.07 242.61 59.64 242.61 59.64C243.17 61.59 243.34 60.8 244.29 62.46C247.65 68.42 238.97 56.27 248.43 69.07C249.59 70.65 248.83 68.95 250.57 70.68C250.57 70.68 253.07 73.68 253.07 73.68C256.89 77.37 254.83 74.72 258.04 77.21C260.72 79.3 265.65 82.39 268.89 83.11C270.84 83.54 271.26 82 273.36 81.36C273.36 81.36 274.68 81.43 274.68 81.43C276.32 81.22 277.85 80.49 279.39 79.89C279.39 79.89 280.75 79.5 280.75 79.5C284.21 77.61 280.99 79.6 283.93 77.18C286.01 75.46 285.78 76.25 287.57 74.07C288.68 72.73 289.55 71.22 290.57 69.89C290.57 69.89 291.25 70 291.25 70C291.25 70 295.07 73.18 295.07 73.18C295.07 73.18 295.79 73.96 295.79 73.96C295.79 73.96 295.82 74.39 295.82 74.39C295.82 74.39 295.25 75 295.25 75C292.05 76.72 292.53 75.73 290.43 77.68C289.56 78.48 288.73 79.81 288.36 80.86C288.36 80.86 288.18 82.43 288.18 82.43C288.18 82.43 287.61 83.54 287.61 83.54C287.61 83.54 287.75 85.25 287.75 85.25C287.7 85.96 287.43 86.65 287.39 87.36C287.88 87.51 288.4 87.48 288.89 87.61C292 88.41 289.38 88.28 291.86 88.64C292.71 88.77 293.33 87.98 294.25 88C294.25 88 295.75 88.25 295.75 88.25C295.75 88.25 301.75 88.25 301.75 88.25C301.75 88.25 303.21 88.04 303.21 88.04C303.21 88.04 304.61 88.64 304.61 88.64C305.34 88.88 307.14 88.61 307.5 87.75C307.8 87.03 307.71 86.13 307.29 85.46C307.12 85.21 306.26 84.48 306.32 83.93C306.32 83.93 306.71 82.46 306.71 82.46C306.81 81.84 306.25 81.12 306.11 80.64C305.42 78.36 305.75 78.35 304.07 76.43C303.14 75.37 299.4 75.7 299.5 73.75C299.64 70.94 300.05 72.3 301.32 70.82C302.5 69.45 303.67 67.72 304.71 66.21C304.71 66.21 305.46 64.46 305.46 64.46C305.46 64.46 306.71 62.96 306.71 62.96C306.71 62.96 307.29 61.29 307.29 61.29C308.59 58.84 310.33 56.51 311.46 53.96C311.46 53.96 312.07 51.82 312.07 51.82C312.07 51.82 313.64 48.89 313.64 48.89C313.64 48.89 313.54 48.46 313.54 48.46C312.53 48.55 311.29 49.37 310.25 48.75C307.59 47.17 311.27 44.18 312.68 43.68C313.74 43.3 314.62 45.33 315.68 44.18C316.61 43.16 316.27 42.19 316.79 41.04C316.79 41.04 317.93 39.18 317.93 39.18C317.93 39.18 318.43 37.43 318.43 37.43C321.15 32.31 318.47 39.11 320.75 34C320.75 34 321.21 32.46 321.21 32.46C321.21 32.46 322.75 30.75 322.75 30.75C323.63 29.3 324.28 27.27 325.96 26.46C327.38 25.78 329.68 27.2 329.68 28.82C329.68 29.69 329.01 30.46 328.11 30.39C327.6 30.35 327.4 29.59 327.14 29.36C327.14 29.36 326.5 29.07 326.5 29.07C326.34 29.3 325.97 29.33 325.82 29.57C324.64 31.41 323.26 33.23 322.61 35.36C322.61 35.36 322.43 36.43 322.43 36.43C321.83 38.02 320.88 39.48 320.36 41.11C320.36 41.11 319.68 44.11 319.68 44.11C319.68 44.11 319.89 44.43 319.89 44.43C319.89 44.43 320.57 44.32 320.57 44.32C320.57 44.32 321.36 43.43 321.36 43.43C321.36 43.43 322.68 43.86 322.68 43.86C325.64 43.42 327.6 42.12 330.07 40.82C330.07 40.82 332.68 39.68 332.68 39.68C336.11 37.7 340.04 34.86 341.39 30.89C341.39 30.89 341.32 29.07 341.32 29.07C341.32 29.07 342.21 27.71 342.21 27.71C342.81 26.42 342.31 25.75 341.96 24.54C341.64 23.4 341.55 22.02 340.57 21.18C339.48 20.24 337.64 19.37 336.39 18.86C335.45 18.47 334.34 17.82 333.39 18.21C333.39 18.21 332.43 18.86 332.43 18.86C332.43 18.86 330.25 18.75 330.25 18.75C330.25 18.75 328.96 18.96 328.96 18.96C328.28 18.89 327.72 18.19 327.07 18.32C320.06 19.74 327.89 18.1 322.68 19.68C320.59 20.31 318.45 20.21 316.39 21.14C313.69 22.36 310.57 23.22 308.39 25.39C307.45 26.33 308.11 27.41 307.79 28.54C306.96 31.4 306.84 30.04 306.54 34.04C306.54 34.04 306.75 35.5 306.75 35.5C306.06 38.99 308.14 30.51 305.86 37.61C305.86 37.61 305.64 39.39 305.64 39.39C305.31 40.72 304.76 42.05 304.39 43.39C303.71 45.92 305.03 42.02 304.43 45.43C304.43 45.43 303.82 46.57 303.82 46.57C303.26 48.24 302.66 49.91 302.39 51.64C302.27 52.4 302.8 53.17 302.68 53.93C302.56 54.64 301.73 54.64 301.57 55.32C301.21 56.87 301.32 58.32 300.86 59.86C300.37 61.48 299.57 62.99 299.5 64.75C299.5 64.75 299.57 66.57 299.57 66.57C299.57 66.57 299.07 67.57 299.07 67.57C298.99 67.82 298.8 69.64 298.32 69.82C295.87 70.75 295.32 68.97 293.07 67.18C290.66 65.26 288.27 63.31 285.82 61.43C283.75 59.83 281.41 57.94 279.32 56.43C279.32 56.43 277.32 55.18 277.32 55.18C277.32 55.18 276.68 54.32 276.68 54.32C276.68 54.32 274.57 52.93 274.57 52.93C274.57 52.93 273.32 51.68 273.32 51.68C273.32 51.68 270.93 50.07 270.93 50.07C269.49 48.96 267.87 47.3 266.25 46.25C264.86 45.34 264.59 45.63 263.64 44.36C262.7 43.11 261.88 41.77 261.07 40.43C260.4 39.32 261.12 39.48 260.79 38.21C257.46 25.47 261.07 39.96 259.18 34.57C259.18 34.57 259.04 33.46 259.04 33.46C259.04 33.46 258.57 32.68 258.57 32.68C258.57 32.68 258.71 31.29 258.71 31.29C258.71 31.29 258 28.5 258 28.5C258 28.5 258.07 26.57 258.07 26.57C258.07 26.57 258.39 26.14 258.39 26.14C261.08 27.92 256.42 23.5 259.61 26.39C260.74 27.42 261.74 28.61 262.93 29.57C262.93 29.57 265.11 31.14 265.11 31.14C265.11 31.14 267.43 33.57 267.43 33.57C267.43 33.57 271.39 36.61 271.39 36.61C271.39 36.61 272.36 37.89 272.36 37.89C273.87 39.22 275.58 40.35 277.07 41.68C277.07 41.68 277.82 42.68 277.82 42.68C277.82 42.68 281.18 45.57 281.18 45.57C281.79 46.08 282.68 46.2 283.25 46.75C283.25 46.75 284.32 48.43 284.32 48.43C284.32 48.43 288.07 51.43 288.07 51.43C288.07 51.43 290.93 54.32 290.93 54.32C291.3 54.64 291.97 54.32 292.36 54.61C292.82 52.55 293.08 54.33 293.46 49.71C293.56 48.58 292.98 48.36 293.36 47.36C293.36 47.36 294.14 45.89 294.14 45.89C294.65 44.09 294.76 42.02 295.18 40.18C295.18 40.18 295.64 38.89 295.64 38.89C295.71 38.06 295.21 37.45 295.36 36.61C295.36 36.61 296.18 34.93 296.18 34.93C296.18 34.93 296.36 32.86 296.36 32.86C296.36 32.86 296.89 31.64 296.89 31.64C296.89 31.64 297.14 29.64 297.14 29.64C297.14 29.64 297.75 27.5 297.75 27.5C297.75 27.5 297.57 25.57 297.57 25.57C297.57 25.57 298.39 24.14 298.39 24.14C298.39 24.14 298.32 22.07 298.32 22.07C298.32 22.07 298.89 20.89 298.89 20.89C298.89 20.89 299.36 18.36 299.36 18.36C299.36 18.36 299.82 17.07 299.82 17.07C299.88 16.33 299 15.49 299.36 14.86C299.36 14.86 300.36 13.61 300.36 13.61C301.52 9.57 299.38 13.34 300.54 10.79C300.75 10.32 301.27 10.05 301.54 9.61ZM325.36 86.61C325.36 86.61 325.39 85.61 325.39 85.61C325.21 84.89 324.66 83.75 324.07 83.18C320.57 79.73 314.31 79.24 311.54 84.04C310.45 85.9 310.48 89.01 310.86 90.89C311.88 96.01 319.55 97.4 323.07 94.32C324.05 93.47 325.49 92.11 325.46 90.71C325.46 90.71 325.14 89.43 325.14 89.43C325.14 89.43 325.36 86.61 325.36 86.61ZM283.57 90.07C283.57 90.07 283.64 89.11 283.64 89.11C283.24 87.11 280.56 84.9 278.68 84.39C278.68 84.39 277.68 84.61 277.68 84.61C277.68 84.61 274.36 84.43 274.36 84.43C271.25 84.8 269.75 87.8 268.86 90.36C268.63 91.01 268.98 91.58 269 92.25C269 92.25 268.86 93.64 268.86 93.64C268.86 93.64 270 96.5 270 96.5C271.99 100.28 277.22 100.19 280.46 98.71C281.11 98.42 281.07 97.88 281.61 97.36C281.61 97.36 282.79 96.54 282.79 96.54C282.79 96.54 283.61 94.68 283.61 94.68C283.61 94.68 283.32 93.43 283.32 93.43C283.28 92.37 283.49 91.1 283.57 90.07ZM445.5 168C445.5 168 446.25 168.25 446.25 168.25C447.25 168.25 448.26 168.16 449.25 168C449.25 168 452.29 167.29 452.29 167.29C452.29 167.29 453.71 167.46 453.71 167.46C458.27 167.24 451.2 166.98 457.07 166.32C459.56 166.04 458.41 167.74 460.93 166.18C462.02 165.5 461.23 165.72 461.57 164.57C461.57 164.57 462.18 163.43 462.18 163.43C462.18 163.43 462.36 162.11 462.36 162.11C462.76 160.78 463.25 159.48 463.64 158.14C463.88 157.34 463.25 156.7 463.36 155.86C463.36 155.86 464.36 154.43 464.36 154.43C464.58 153.78 464.15 153.02 464.36 152.36C465.09 149.96 465.83 147.28 466 144.75C466.21 141.5 465.96 139.3 465.43 136.43C465.43 136.43 465.86 136.11 465.86 136.11C467.6 135.41 469.71 135.43 471.5 136C473.49 136.63 475.42 136.13 477.18 137.82C478.53 139.13 478.95 141.2 478.75 143C478.75 143 478.14 145.14 478.14 145.14C478.23 154.95 477.71 141.82 477.29 149.29C477.29 149.29 477.64 150.71 477.64 150.71C477.64 150.71 476.82 152.07 476.82 152.07C476.82 152.07 476.64 153.64 476.64 153.64C476.31 154.79 475.43 156.09 475.32 157.32C475.32 157.32 475.46 158.96 475.46 158.96C475.32 159.49 474.73 159.8 474.57 160.32C474.5 160.57 474.51 162.18 474.5 162.57C474.96 162.43 475.48 162.84 475.93 162.68C475.93 162.68 479.75 161 479.75 161C479.94 160.9 481.21 159.47 481.89 159.86C481.89 159.86 483.07 160.68 483.07 160.68C484.26 162.12 487.58 166.46 484.82 168.57C482.3 170.51 482.55 170.45 478.64 171.64C478.64 171.64 476.64 171.89 476.64 171.89C476.64 171.89 474.32 172.82 474.32 172.82C473.7 173.02 472.59 172.12 472.18 172.5C471.01 173.59 471.19 174.54 470.82 176.07C470.82 176.07 470.32 177.57 470.32 177.57C470.32 177.57 470.68 179.68 470.68 179.68C470.68 179.68 469.86 181.36 469.86 181.36C469.56 182.09 469.96 183.17 469.96 183.79C469.96 186.29 469.12 188.49 470.89 190.61C472 191.93 474.78 191.58 476.11 191.11C478.13 190.38 480.09 189.42 481.68 187.93C481.68 187.93 482.57 186.57 482.57 186.57C482.57 186.57 486.32 183.32 486.32 183.32C487.27 182.24 486.88 182.12 487.54 180.54C488.24 178.83 488.88 177.11 489.71 175.46C490.19 174.53 491.13 173.59 491.82 172.82C494.66 169.65 498.18 165.88 502.64 164.89C502.64 164.89 504.64 164.64 504.64 164.64C504.64 164.64 506.89 163.64 506.89 163.64C508.88 163.46 507.06 163.99 510.14 164.61C510.14 164.61 511.61 164.39 511.61 164.39C513.64 165.03 512.21 165.74 513.89 165.64C514.39 165.61 515.84 164.12 516 164C517.05 163.24 517.88 163 519.11 163.14C522.46 163.54 522.53 167.71 521.86 170.11C521.27 172.2 520.22 174.31 519.18 176.18C517.95 178.39 517.71 177.16 516.57 180.57C516.57 180.57 516.75 182 516.75 182C516.78 182.96 516.28 184.47 517.14 185.36C517.14 185.36 517.96 185.71 517.96 185.71C517.96 185.71 519.36 185.36 519.36 185.36C519.36 185.36 520.46 185.39 520.46 185.39C521.2 185.3 521.9 184.93 522.5 184.5C524.7 182.94 526.14 181.92 527.39 179.64C528.36 177.89 528.3 175.72 528.46 173.71C528.46 173.71 528.29 172.29 528.29 172.29C528.29 172.29 529.21 170.96 529.21 170.96C529.21 170.96 530.5 167.5 530.5 167.5C530.5 167.5 531.5 166.25 531.5 166.25C531.5 166.25 532.5 164.5 532.5 164.5C533.42 163.11 535.68 162.77 537.25 162.75C539.18 162.73 542.26 164.88 542 167C542 167 541.54 168.79 541.54 168.79C541.06 170.47 540.06 171.96 539.29 173.54C538.56 175.01 538.69 173.38 538.11 175.61C537.31 178.65 537 181.23 537.46 184.29C537.79 186.45 537.9 188.41 539.75 189.61C539.75 189.61 540.75 189.5 540.75 189.5C540.75 189.5 542.32 189.93 542.32 189.93C544.01 190.18 546.93 187.4 547.68 186.68C553.5 181.04 549.28 184.73 551.5 181.25C552.25 180.07 552.7 180.2 553.21 178.96C553.21 178.96 553.64 177.39 553.64 177.39C553.64 177.39 554.32 176.64 554.32 176.64C554.32 176.64 554.07 175.43 554.07 175.43C554.07 175.43 554.5 171.75 554.5 171.75C554.67 169.73 554.41 170.75 554.25 168.75C554.16 167.59 554.31 166.42 554.25 165.25C555.17 165.02 556.67 164.27 557.68 164.39C557.68 164.39 559.14 165.11 559.14 165.11C561.93 166.1 558.85 163.8 563.32 166.93C564.02 167.42 564.64 168.69 565.14 169.36C565.14 169.36 565.79 169.29 565.79 169.29C569.24 167 573.06 162.53 577.75 163C577.75 163 580.36 163.14 580.36 163.14C582.84 163.71 583.15 164.83 584.68 166.57C584.68 166.57 585.89 167.61 585.89 167.61C585.89 167.61 586 172.75 586 172.75C585.99 173.56 584.93 174.14 584.68 174.68C584.08 175.96 582.04 176.21 581.04 176.79C580.75 176.95 580.09 177.73 579.54 177.64C578.73 177.52 577.2 177.43 576.61 176.89C576.07 176.41 576.02 174.7 576 174.5C575.8 172.47 576.26 171.92 575.07 170.18C575.07 170.18 574 169.75 574 169.75C572.42 169.46 571.48 170.24 570.18 170.93C569.29 171.4 569.09 172.68 568.29 173.29C567.14 174.14 566.46 174.57 565.75 176C565.75 176 565.29 177.54 565.29 177.54C565.29 177.54 564.54 178.54 564.54 178.54C563.71 180.19 562.76 182.29 562.43 184.11C562.43 184.11 562.75 186 562.75 186C562.75 186 562.29 188.71 562.29 188.71C562.29 188.71 562.71 191.21 562.71 191.21C562.71 191.21 562.39 192.32 562.39 192.32C562.32 193.05 562.71 193.82 562.18 194.43C561.75 194.92 559.4 195.75 558.86 195.86C558.86 195.86 555.5 196.5 555.5 196.5C555.5 196.5 553.89 196.36 553.89 196.36C550.77 195.69 551.3 192.22 551.21 189.93C550.92 190.18 550.46 190.16 550.18 190.43C546.56 193.9 542.7 197.82 537.25 197.75C536.21 197.74 533.65 196.63 533.46 196.54C528.17 193.89 532.93 196.13 529.75 193C529.75 193 528.46 191.61 528.46 191.61C528.46 191.61 528.46 190.54 528.46 190.54C528.46 190.54 527.82 187.18 527.82 187.18C527.82 187.18 527.39 186.43 527.39 186.43C524.37 188.17 521.49 190.56 518.07 191.82C516.99 192.22 515.9 192.77 514.75 192.75C513.25 192.73 512.55 192.38 511.04 191.71C509.93 191.22 508.84 190.18 507.54 190.29C506.23 190.39 504.8 192.18 503.5 192.75C501.03 193.83 498.67 194.12 496 194C494.45 193.93 495.3 193.71 493.64 193.36C493.64 193.36 492.25 193.25 492.25 193.25C490.43 192.04 489.18 190.11 487.71 188.61C487.71 188.61 486.93 188.93 486.93 188.93C482.72 192.78 487.97 190.83 479 196C476.58 197.4 474.18 199.09 471.43 199.61C471.43 199.61 470.36 199.61 470.36 199.61C470.36 199.61 467.5 200.25 467.5 200.25C461.98 198.41 464.4 200.08 460.93 197.57C459.29 196.38 458.57 194.37 457.89 192.61C456.83 189.83 456.66 187.11 457.39 184.14C457.39 184.14 457.89 182.89 457.89 182.89C457.89 182.89 458.18 180.43 458.18 180.43C458.57 178.67 459.36 176.91 459.61 175.11C459.66 174.74 459.45 174.37 459.5 174C459.5 174 458.75 173.75 458.75 173.75C454.93 173.5 450.45 174.5 446.93 174.93C445.91 175.05 444.97 173.61 444.07 174.82C442.9 176.4 443.06 177.74 442.43 179.43C442.43 179.43 440.64 183.39 440.64 183.39C440.64 183.39 440.5 184.75 440.5 184.75C440.5 184.75 439.29 186.29 439.29 186.29C439.29 186.29 438 188.5 438 188.5C438 188.5 436.79 190.04 436.79 190.04C436.79 190.04 436.32 191.07 436.32 191.07C425.91 199.98 437.08 192.07 427.96 197.96C421.14 202.38 426.33 198.61 422.86 199.86C422.09 200.13 421.65 200.83 420.75 200.75C414.12 200.15 426.06 199.97 416 200.25C415.25 200.27 414.78 201.06 414.07 200.93C411.89 200.53 413.66 200.72 410.86 199.64C407.32 198.28 403.85 197.27 401.82 193.68C401.82 193.68 400.18 189.82 400.18 189.82C400.18 189.82 400 187.75 400 187.75C400.09 185.95 400.6 186.1 401.11 184.36C401.43 183.26 401.04 182.95 401.68 182.18C402.13 181.63 402.5 181 403 180.5C403 180.5 404.07 179.82 404.07 179.82C404.07 179.82 405.68 177.93 405.68 177.93C405.68 177.93 406.79 177.54 406.79 177.54C406.79 177.54 408.82 176.07 408.82 176.07C413.33 173.32 408.54 176.49 412.5 174.5C412.5 174.5 413.43 173.75 413.43 173.75C413.43 173.75 414.68 173.68 414.68 173.68C415.84 173.39 416.96 172.95 418.11 172.61C421.75 171.5 418.08 172.55 420.86 171.36C422.09 170.83 420.99 171.96 422.86 171.36C422.86 171.36 424.29 170.36 424.29 170.36C424.91 170.25 425.49 170.98 426.11 170.86C426.11 170.86 427.64 170.39 427.64 170.39C430.33 169.9 431.45 170.5 433.04 168.79C433.45 168.34 434.17 165.3 433.89 164.61C433.89 164.61 433.14 163.25 433.14 163.25C432.89 161.23 434.31 159.46 434.5 157.5C434.95 152.75 434.27 157.64 434 153.25C434 153.25 434 147 434 147C434.21 144.02 434.74 146.1 434.64 144.11C434.64 144.11 434.32 141.18 434.32 141.18C434.06 140.09 433.11 139.11 433.25 138C433.25 138 433.75 136 433.75 136C433.93 134.17 433.15 134.2 434.36 133.36C435.48 132.57 437.06 133.88 438.43 133.93C444.07 134.12 435.2 132.9 439.93 133.32C440.58 133.38 440.79 134.27 441.25 134.5C443.65 135.7 446.67 135.63 447.68 138.57C448.96 142.3 447.36 146.48 447.25 150.25C447.22 151.14 447.11 151.96 447.46 152.79C447.79 153.53 448.01 153.32 447.93 153.93C447.72 155.48 446.95 156.92 446.71 158.46C446.71 158.46 446.82 161.07 446.82 161.07C446.82 161.07 446.14 163.14 446.14 163.14C443.08 177.69 447.49 159.19 445.36 167.11C445.28 167.4 445.54 167.7 445.5 168ZM53.54 174.75C53.62 174.4 53.97 174.14 54.04 173.79C59.36 145.23 53.67 177.11 55 166.5C55 166.5 55.75 162.25 55.75 162.25C55.75 162.25 55.25 160.25 55.25 160.25C55.96 155.09 54.89 164.19 56.14 158.14C56.14 158.14 56.36 155.11 56.36 155.11C56.36 155.11 56.86 153.86 56.86 153.86C56.86 153.86 57.21 151.21 57.21 151.21C57.21 151.21 57.64 149.89 57.64 149.89C57.75 149.06 57.42 149.08 57.25 148C57.09 147.01 57.69 147.31 58.04 146.29C60.65 138.45 56.12 149.24 59.21 142.96C59.21 142.96 59.64 141.64 59.64 141.64C59.64 141.64 60.64 140.89 60.64 140.89C62.46 139.24 63.86 137.7 66.36 137.11C66.36 137.11 72.25 136 72.25 136C74.46 135.49 76.95 135.34 79.04 136.21C79.04 136.21 79.36 136.57 79.36 136.57C78.99 136.9 79 137.55 78.61 137.86C78.61 137.86 76.32 139.32 76.32 139.32C76.32 139.32 75.68 140.18 75.68 140.18C75.68 140.18 73.93 141.43 73.93 141.43C71.77 143.26 72.99 142.53 71.18 144.68C71.18 144.68 70.25 145.5 70.25 145.5C68.29 148.45 70.25 145.64 67.96 150.21C67.96 150.21 67.04 151.54 67.04 151.54C67.04 151.54 66.39 154.14 66.39 154.14C65.93 155.49 64.62 157.8 64.36 159.36C64.36 159.36 64.43 161.18 64.43 161.18C64.43 161.18 63.82 162.32 63.82 162.32C63.82 162.32 63.64 164.14 63.64 164.14C63.23 166 62.29 167.98 62.14 169.89C62.08 170.71 62.81 171.2 62.71 171.96C62.57 173.11 61.67 173.85 61.5 175C60.76 180.04 62.39 174.12 61.82 177.07C59.02 191.49 61.58 175.42 61 183C61 183 60.5 186.25 60.5 186.25C60.5 188.79 62.02 192.18 59.75 194.25C59.75 194.25 58 194.75 58 194.75C54.56 195.03 53.59 195.08 50.75 193.75C49.85 193.32 49.39 192.12 48.68 191.57C48.68 191.57 48.25 190.25 48.25 190.25C48.25 190.25 46.79 188.21 46.79 188.21C45.61 186.33 44.54 184.28 43.25 182.5C43.25 182.5 42.14 181.36 42.14 181.36C41.29 180.17 40.6 178.73 39.75 177.5C38.13 175.15 36.21 173.03 34.5 170.75C34.5 170.75 33.57 169.18 33.57 169.18C33.57 169.18 32.46 168.29 32.46 168.29C32.46 168.29 31.43 166.32 31.43 166.32C31.43 166.32 30.36 165.64 30.36 165.64C30.36 165.64 29.75 164.25 29.75 164.25C29.23 163.27 28.11 162.45 27.39 161.71C27.34 162.07 26.96 162.32 26.93 162.68C26.93 162.68 26.86 165.11 26.86 165.11C26.86 165.11 26.11 166.86 26.11 166.86C25.78 168.09 25.61 169.36 25.36 170.61C25.36 170.61 25.68 172.68 25.68 172.68C25.68 172.68 24.68 174.18 24.68 174.18C24.68 174.18 24.64 176.14 24.64 176.14C24.37 177.42 23.46 178.76 23.36 180.11C23.36 180.11 23.43 182.18 23.43 182.18C23.43 182.18 22.61 183.36 22.61 183.36C22.61 183.36 22.64 184.64 22.64 184.64C22.64 184.64 22 185.75 22 185.75C21.67 186.61 21.43 187.5 21.11 188.36C20.7 189.43 20.94 190.69 20.5 191.75C20.09 192.72 18.5 195.95 16.96 196.71C16.96 196.71 14.82 197.57 14.82 197.57C14.23 197.88 13.64 198.67 12.89 198.82C12.24 198.96 11.55 198.29 11 198.25C9.42 198.13 7.83 198.61 6.25 198.5C6.25 198.5 3.39 198.11 3.39 198.11C3.39 198.11 2.68 197.64 2.68 197.64C2.68 197.64 2.82 197.07 2.82 197.07C2.82 197.07 4.07 196.07 4.07 196.07C6.04 193.8 6.87 191.89 8.21 189.46C8.21 189.46 9.18 188.18 9.18 188.18C9.18 188.18 9.82 186.32 9.82 186.32C10.55 184.8 10.83 185.29 11.25 183.75C11.25 183.75 11.46 182.21 11.46 182.21C11.46 182.21 12.32 181.32 12.32 181.32C13.06 179.98 13.7 178.56 14.07 177.07C14.07 177.07 14.32 175.57 14.32 175.57C15.12 173.39 15.91 172.77 16.39 170.64C16.39 170.64 16.61 168.61 16.61 168.61C17.15 166.71 18.2 164.84 18.64 162.89C18.64 162.89 18.32 161.07 18.32 161.07C18.32 161.07 19.36 159.36 19.36 159.36C19.36 159.36 19.36 157.61 19.36 157.61C19.36 157.61 19.89 156.39 19.89 156.39C19.89 156.39 20.18 153.93 20.18 153.93C20.18 153.93 20.89 150.89 20.89 150.89C20.93 149.41 20.26 148.31 20 146.75C20 146.75 20 145 20 145C19.83 142.73 19.62 141.35 20.21 138.96C20.98 135.91 20.74 136.27 22.54 135.04C22.54 135.04 23.5 134.25 23.5 134.25C26.56 133.75 28.87 135.92 29.86 138.89C30.3 140.22 29.6 141.72 30.25 143C30.89 144.26 31.61 145.48 32.25 146.75C32.25 146.75 33.82 148.68 33.82 148.68C33.82 148.68 34.21 149.79 34.21 149.79C38.7 157.37 33.73 148.64 36.54 152.71C36.54 152.71 37.25 154.25 37.25 154.25C38.93 156.66 41.01 158.88 42.82 161.18C42.82 161.18 44.43 163.57 44.43 163.57C44.43 163.57 45.68 164.57 45.68 164.57C45.68 164.57 46.25 165.75 46.25 165.75C48.57 169.4 46.39 165.76 48.32 168.18C48.32 168.18 49.43 169.82 49.43 169.82C49.43 169.82 50.43 170.57 50.43 170.57C51.28 171.67 51.85 172.96 52.68 174.07C52.68 174.07 53.54 174.75 53.54 174.75ZM225.32 147.96C225.32 147.96 226.57 148.68 226.57 148.68C228.3 149.32 232.12 149.5 233.25 149.25C235.43 148.77 235.81 149.08 237.82 147.57C239.99 145.95 239.18 143.37 237.82 141.68C236.7 140.28 233.66 139.8 232.04 139.71C222.02 139.17 240.03 139.09 227.25 139.25C227.25 139.25 225 139.75 225 139.75C225 139.75 223.32 139.82 223.32 139.82C220.32 140.32 216.79 141.89 215 144.5C214.3 145.52 214.84 145.24 214.43 146.43C214.43 146.43 213.86 147.54 213.86 147.54C213.86 147.54 214 149 214 149C214 149 213.79 150.46 213.79 150.46C213.79 150.46 214.36 151.39 214.36 151.39C214.65 152.17 214.42 152.83 215.04 153.46C215.04 153.46 217.43 155.57 217.43 155.57C219.89 158.01 214.99 154.93 221 158.75C221 158.75 224.75 160.75 224.75 160.75C228.87 163.6 234.2 165.61 237.82 169.18C246.43 177.65 238.85 169.69 242.5 175C243.83 176.94 244.89 179.36 244.75 181.75C244.67 183.11 244.11 182.86 243.57 184.32C243.08 185.66 243.68 185.4 243 186.5C241.88 188.3 240.87 189.55 239.32 191.07C234.79 195.54 236.88 192.79 232.5 195.25C232.5 195.25 231.43 196.29 231.43 196.29C231.43 196.29 230.32 196.32 230.32 196.32C230.32 196.32 227.43 197.43 227.43 197.43C227.43 197.43 226.07 197.57 226.07 197.57C226.07 197.57 224.68 198.43 224.68 198.43C224.68 198.43 222.93 198.18 222.93 198.18C222.93 198.18 218.75 199 218.75 199C218.75 199 215.25 199 215.25 199C212.2 199.15 209.07 199.32 206 199C206 199 202.25 198.25 202.25 198.25C201.48 198.14 200.9 198.73 200.21 198.54C200.21 198.54 199.25 197.75 199.25 197.75C196.52 196.71 194.16 197.03 191.57 194.93C186.6 190.88 190.36 195.88 185.21 189.54C185.21 189.54 184.11 187.14 184.11 187.14C184.06 187.02 183.25 184.76 183.25 184C183.25 179.15 186.89 175.54 190.79 173.29C190.79 173.29 193.43 171.93 193.43 171.93C193.43 171.93 195.25 171.5 195.25 171.5C195.25 171.5 196.32 170.46 196.32 170.46C196.77 170.47 197.13 170.93 197.57 170.93C197.57 170.93 200.5 170.5 200.5 170.5C218.95 169.22 190.79 171.42 206.43 170.86C206.43 170.86 207.71 170.36 207.71 170.36C207.71 170.36 209.04 171.46 209.04 171.46C212.87 173.58 208.13 169.61 213.46 173.54C213.46 173.54 215.18 175.32 215.18 175.32C215.18 175.32 216.32 176.18 216.32 176.18C218.41 178.17 218 181.09 216.07 182.82C216.07 182.82 213.64 184.39 213.64 184.39C213.64 184.39 212.25 184.25 212.25 184.25C212.25 184.25 209 184.75 209 184.75C209 184.75 207.14 184.36 207.14 184.36C204.15 183.42 206.48 180.47 206.14 178.36C205.74 175.82 204.08 174.9 201.68 174.57C200.27 174.38 201.09 175.14 199.79 175.54C199.79 175.54 198.25 175.5 198.25 175.5C195.94 176.35 194.74 179.97 194.75 182C194.75 182 195.82 186.18 195.82 186.18C196.79 189.27 200.89 191.66 203.61 192.64C205.22 193.23 206.97 194.37 208.61 193.86C208.61 193.86 209.71 193.18 209.71 193.18C209.71 193.18 213.5 193.75 213.5 193.75C213.5 193.75 217.29 193.18 217.29 193.18C221.03 193.23 216.74 194.16 219.11 193.86C223.28 193.32 220.55 193.3 222.29 192.54C225.22 191.25 225.35 191.51 227.18 189.68C227.18 189.68 228.39 188.64 228.39 188.64C228.39 188.64 229.21 186.71 229.21 186.71C230.24 184.67 230.71 185.17 230.5 182.25C230.18 177.72 226.49 174.19 222.96 171.79C222.96 171.79 221.46 171.04 221.46 171.04C217.82 168.4 226.86 173.93 219.25 169.25C215.46 166.92 211.49 164.87 208.18 161.82C205.37 159.23 206.86 160.43 204.32 157.43C204.32 157.43 203.43 156.57 203.43 156.57C203.43 156.57 203.11 154.89 203.11 154.89C202.82 153.91 201.74 151.87 202 150.75C202.56 148.26 202.33 147.19 203.96 144.46C203.96 144.46 206.39 141.89 206.39 141.89C209.14 139.26 211.92 138.11 215.36 136.86C216.75 136.35 218.15 135.67 219.61 135.36C219.61 135.36 220.82 135.32 220.82 135.32C224.14 134.52 222.83 134.16 226 134C226.79 133.96 227.46 134.73 228.25 134.75C228.25 134.75 232 134.75 232 134.75C232.74 134.79 233.4 134.06 234.14 134.11C235.83 134.21 235.28 134.61 237.18 135.07C237.18 135.07 238.61 135.14 238.61 135.14C238.61 135.14 241.89 136.36 241.89 136.36C241.89 136.36 243.61 136.64 243.61 136.64C243.61 136.64 244.5 137.5 244.5 137.5C247.15 139.31 249.3 140.66 250.5 144C251.28 146.17 250.09 148.15 249 150C249 150 247.75 151.75 247.75 151.75C244.93 153.85 242.18 154.95 238.68 155.93C238.68 155.93 237.25 155.75 237.25 155.75C235.22 155.8 233.3 155.94 231.25 155.75C231.25 155.75 230 155.75 230 155.75C227.52 155.12 226.08 154.01 224.43 152.32C223.75 151.63 222.63 150.94 223.46 149.71C223.95 149.01 224.81 148.65 225.32 147.96ZM346.64 140.46C346.64 140.46 346.07 141.57 346.07 141.57C346.07 141.57 346.43 144.57 346.43 144.57C346.62 149.31 345.62 141.84 346.25 148C346.25 148 346.61 149.5 346.61 149.5C346.53 150.14 345.95 149.83 345.71 150.46C345.71 150.46 345.64 151.89 345.64 151.89C345.64 151.89 343.82 155.57 343.82 155.57C343.82 155.57 343.25 157.75 343.25 157.75C343.25 157.75 341.5 160.25 341.5 160.25C341.5 160.25 341.04 161.54 341.04 161.54C340.53 162.45 339.69 163.28 339.21 164.21C339.21 164.21 338.86 165.36 338.86 165.36C338.86 165.36 337.93 166.18 337.93 166.18C337.24 167 336.59 167.86 336 168.75C334.9 170.41 333.88 171.99 332.57 173.57C331.67 174.67 329.85 175.75 329.64 177.39C329.26 180.35 329.86 185.2 332.11 187.39C332.9 188.17 332.82 187.65 333.75 188C334.38 188.24 334.98 187.71 335.54 187.61C337.53 187.23 335.79 188.41 338.5 186.5C339.95 185.48 342.46 183.25 343.25 181.5C345.07 177.48 343.71 178.53 346.25 175C350.33 169.32 345.87 174.88 350.57 169.82C350.57 169.82 351.43 168.68 351.43 168.68C351.43 168.68 352.71 167.96 352.71 167.96C354.73 166.59 356.57 165.44 358.89 164.64C358.89 164.64 360.11 164.11 360.11 164.11C361.23 163.89 363.7 163.36 365.25 163.5C365.25 163.5 367.46 163.82 367.46 163.82C367.88 163.82 368.23 163.44 368.64 163.43C368.64 163.43 369.32 164.43 369.32 164.43C370.77 165.79 372.88 166.51 373.68 168.57C374.06 169.55 373.34 169.23 373.36 170.11C373.36 170.11 373.68 171.68 373.68 171.68C373.51 172.54 372.22 173.8 371.75 174.5C369.61 177.64 366.07 178.83 362.75 180.5C361.88 180.94 360.87 181.05 360 181.5C360 181.5 358.86 182.61 358.86 182.61C358.86 182.61 357.29 182.29 357.29 182.29C356.02 182.4 354.75 182.48 354 183.5C354 183.5 353.89 184.36 353.89 184.36C353.89 184.36 354.5 185.5 354.5 185.5C354.5 185.5 355.25 187.5 355.25 187.5C355.91 188.39 358.24 190.16 359.43 189.68C360.1 189.41 360.23 189 361 189C361.74 189 362.27 189.87 362.96 189.71C366.36 188.93 366.32 189.09 368.75 187.75C368.75 187.75 370.82 186.32 370.82 186.32C371.43 185.79 373.16 182.76 374.79 183.71C374.79 183.71 376.11 184.64 376.11 184.64C376.11 184.64 376.43 185.25 376.43 185.25C375 187.45 373.27 189.95 371 191.5C368.31 193.34 365.43 193.98 362.39 194.89C362.39 194.89 360.61 195.61 360.61 195.61C357.04 196.77 352.1 194.78 349.25 193C347.2 191.72 345.96 189.83 344.46 188.11C344.46 188.11 343.64 188.39 343.64 188.39C343.64 188.39 340.32 191.57 340.32 191.57C334.77 196.09 338.56 192.85 335.54 194.54C335.54 194.54 334.5 195.25 334.5 195.25C334.5 195.25 333.04 195.54 333.04 195.54C330.16 196.82 332.73 196.77 329.5 196.75C328.22 196.74 328.4 196.14 327.25 195.5C324.08 193.74 326.22 196.01 322.93 192.82C322.29 192.21 321.5 190.1 321.29 189.71C320 187.38 321.54 191.65 320.64 187.11C320.47 186.25 319.86 185.53 319.64 184.68C318.6 185.67 319.74 183.84 318.93 184.93C316.93 187.59 320.4 184 315.93 187.43C315.93 187.43 314.29 189.04 314.29 189.04C314.29 189.04 313.21 189.46 313.21 189.46C313.21 189.46 308.54 192.79 308.54 192.79C306.7 193.95 307.43 192.28 305.43 194.43C304.9 195 305.05 195.63 304.86 196.36C304.86 196.36 304.39 197.64 304.39 197.64C304.39 197.64 304.29 199.79 304.29 199.79C303.97 201.16 302.92 203.07 302.36 204.36C302.36 204.36 302.36 205.61 302.36 205.61C302.36 205.61 301.46 206.46 301.46 206.46C301.46 206.46 300.93 207.93 300.93 207.93C299.42 211.08 296.98 215.26 293.43 216.43C288.86 217.93 283.41 218.13 279 216C279 216 276.93 214.82 276.93 214.82C276.93 214.82 276.25 213.25 276.25 213.25C276.25 213.25 275.29 211.96 275.29 211.96C274.86 211.04 275.37 210.81 275.43 209.93C275.43 209.93 275.32 208.57 275.32 208.57C275.67 207.84 277.35 204.84 278.43 203.93C281.71 201.14 285.69 199.18 289.5 197.25C289.5 197.25 292.93 195.68 292.93 195.68C292.93 195.68 294.25 194.75 294.25 194.75C294.26 194.75 295.6 194.53 295.89 194.14C296.35 193.54 295.96 193.28 296 192.75C296 192.75 295.36 192.61 295.36 192.61C289.41 193.93 297.17 192.58 292.64 193.89C289.73 194.74 286.92 194.32 284.43 192.57C282.49 191.21 281.2 188.86 280.21 186.79C280.07 186.48 279.67 184.42 278.71 184.61C277.48 184.85 277.45 185.56 276.57 186.32C276.57 186.32 273.04 189.04 273.04 189.04C271.05 190.45 269.23 191.56 266.96 192.46C266.96 192.46 265 193 265 193C265 193 263.89 193.64 263.89 193.64C261.99 193.97 261.65 194.32 259.61 193.64C259.61 193.64 257.68 192.57 257.68 192.57C256.72 192.26 255.23 191.75 254.5 191C253.23 189.69 253.13 190.67 252 188C250.8 185.16 250.64 182.47 251.18 179.43C251.18 179.43 251.64 177.89 251.64 177.89C251.64 177.89 251.57 176.57 251.57 176.57C251.57 176.57 252.04 175.79 252.04 175.79C252.04 175.79 252.39 174.39 252.39 174.39C253.21 172.35 252.99 174.81 253.68 171.68C253.68 171.68 253.64 170.39 253.64 170.39C253.64 170.39 254.43 169.43 254.43 169.43C254.84 168.63 254.9 167.49 255.11 166.64C255.11 166.64 254.46 166.29 254.46 166.29C253.4 166.11 252.33 166.03 251.25 166C249.43 165.94 251.55 166.5 249.39 166.89C247.63 167.21 247.66 166.2 246.46 165.54C246.46 165.54 244.79 164.96 244.79 164.96C244.21 164.57 243.85 164.48 243.5 163.75C242.88 162.46 244.27 160.29 245.54 159.86C246.46 159.54 248.2 160.57 249.14 160.86C250.28 161.2 251.36 160.94 252.5 161C253.74 161.06 255.53 161.82 256.68 160.93C257.28 160.46 256.99 159.42 257.18 158.68C257.5 157.36 257.95 156.98 258 155.75C258.28 148.26 258.12 155.33 257.25 149.25C257.25 149.25 257.5 148.5 257.5 148.5C257.5 148.5 258.25 148.25 258.25 148.25C258.25 148.25 260.32 148.43 260.32 148.43C262.25 148.85 265.23 149.46 266.82 150.93C268.03 152.04 267.23 154.27 267.29 155.46C267.29 155.46 267.68 156.93 267.68 156.93C267.73 157.37 266.9 158.38 266.86 158.54C266.02 161.72 267.48 157.85 267.36 160.14C269.07 159.74 270.9 159.46 272.46 158.46C274.23 157.34 275.23 155.38 277.14 157.36C277.14 157.36 279.54 160.21 279.54 160.21C279.54 160.21 279.61 160.68 279.61 160.68C279.16 161.2 278.65 161.68 278.18 162.18C278.18 162.18 277.32 163.32 277.32 163.32C275.87 164.21 273.51 164.9 271.86 165.61C271.15 165.91 270.45 165.2 269.64 165.39C268.61 165.64 268.04 166.69 266.96 166.71C266.49 166.73 265.63 166.31 265.18 166.18C265.18 166.18 264.64 166.64 264.64 166.64C264.64 166.64 263.18 170.93 263.18 170.93C263.18 170.93 263.18 172.43 263.18 172.43C263.18 172.43 262.64 173.5 262.64 173.5C262.64 173.5 262.68 174.68 262.68 174.68C262.68 174.68 261.86 176.11 261.86 176.11C261.86 176.11 261.75 178.25 261.75 178.25C261.54 180.4 261.06 179.84 261.86 182.64C263.21 187.38 268.9 186.1 271.96 184.21C271.96 184.21 274.07 182.57 274.07 182.57C274.07 182.57 277 179.5 277 179.5C277 179.5 278.68 176.68 278.68 176.68C279.47 173.75 278.22 170.24 279.57 167.32C280.71 164.86 284.12 162.75 286.89 163.36C289.66 163.96 290.84 165.98 290.75 168.75C290.75 168.75 290.5 170.25 290.5 170.25C290.5 170.25 290.61 171.61 290.61 171.61C290.17 172.94 288.84 173.68 288.75 175.25C288.65 177.12 288.6 179.07 289.14 180.86C289.14 180.86 289.64 182.11 289.64 182.11C289.64 182.11 289.68 183.82 289.68 183.82C289.68 183.82 290.46 185.04 290.46 185.04C291.02 186.31 291.15 188.56 293.25 188.25C296.06 187.83 297.02 184.94 297.86 182.61C297.86 182.61 299.61 178.11 299.61 178.11C300 176.99 298.96 178 299.32 176.32C299.32 176.32 300.25 175.25 300.25 175.25C300.25 175.25 300.57 173.57 300.57 173.57C302.18 168.43 300.87 172.9 301.96 170.46C303.45 167.17 303.04 167.21 305.11 164.11C305.48 163.54 307.67 162.49 307.71 162.46C307.71 162.46 308.71 161.71 308.71 161.71C310.12 161.06 310.93 162.21 312.18 162.57C313.36 162.92 313.07 162.36 313.75 162.75C313.75 162.75 316.57 164.43 316.57 164.43C318.07 165.52 314.78 167.81 314.68 167.93C314.68 167.93 313.25 169.75 313.25 169.75C304.57 183.46 315.71 166.03 310.46 175.71C309.72 177.09 309.57 178.22 309.18 179.68C309.18 179.68 308.64 180.75 308.64 180.75C308.64 180.75 308.64 181.89 308.64 181.89C308.25 183.32 307.51 184.69 307.14 186.14C305.82 191.43 307.69 184.27 307.43 187.75C307.43 187.75 308 187.75 308 187.75C311.32 186.37 314.26 183.54 316.89 181.14C317.74 180.38 318.71 179.97 319.18 178.93C320.19 176.67 319.68 174.1 320 171.75C320 171.75 320.71 168.46 320.71 168.46C320.71 168.46 320.25 166.5 320.25 166.5C320.49 164.18 320.44 167.68 321.18 164.68C321.18 164.68 321.11 163.11 321.11 163.11C321.48 161.67 322.4 160.27 322.79 158.79C323.07 157.67 322.98 156.46 323.36 155.36C323.36 155.36 324.89 151.89 324.89 151.89C330.78 137.18 323.37 154.7 327.46 145.71C327.46 145.71 328 144.25 328 144.25C328 144.25 329.25 142.75 329.25 142.75C329.25 142.75 329.82 141.32 329.82 141.32C329.82 141.32 330.68 140.68 330.68 140.68C330.68 140.68 332.68 138.18 332.68 138.18C334.85 136.19 338.92 133.87 341.96 135.54C341.96 135.54 344.07 136.93 344.07 136.93C345.21 137.72 345.99 139.32 346.64 140.46ZM339.32 145.43C339.32 145.43 338.5 145.5 338.5 145.5C338.5 145.5 337.21 146.96 337.21 146.96C337.21 146.96 335.96 150.21 335.96 150.21C335.2 151.79 334.97 150.98 334.64 152.39C334.64 152.39 334.39 154.14 334.39 154.14C332.04 161.02 337.51 140.04 332.32 159.32C331.95 160.7 332.1 162.3 331.68 163.68C331.68 163.68 330.86 165.36 330.86 165.36C330.55 166.37 330.59 167.49 330.46 168.46C330.46 168.46 330.82 168.5 330.82 168.5C330.82 168.5 331.57 167.82 331.57 167.82C334.43 163.98 336.98 159.78 338.86 155.36C340.77 150.85 338.22 156.45 339.36 151.86C339.84 149.92 340.17 151.59 340.25 149.75C340.31 148.36 340.6 146.62 339.64 145.61C339.64 145.61 339.32 145.43 339.32 145.43ZM160.43 164.25C160.43 164.25 160.14 164.89 160.14 164.89C158.83 166.24 156.87 167.2 155.43 168.43C154.66 169.08 153.44 170.52 153 171.25C153 171.25 152.54 172.54 152.54 172.54C148.88 177.83 156.12 164.41 150.07 175.57C150.07 175.57 149.21 177.96 149.21 177.96C148.73 179.02 148.01 179.97 147.54 181.04C140.04 198.02 147.65 182.39 144.46 187.21C143.49 188.68 142.72 190.41 141.04 191.29C137.99 192.87 139.36 192.17 136 192.75C136 192.75 133.11 192.64 133.11 192.64C132.12 192.41 129.15 190.48 128.68 190.07C126.38 188.1 128.15 189.38 125.57 186.18C125.57 186.18 125.04 185.93 125.04 185.93C124.85 186.19 124.42 186.23 124.25 186.5C122.92 188.6 123.27 188.82 121.57 190.57C121.57 190.57 119.68 192.18 119.68 192.18C119.68 192.18 118.61 193.36 118.61 193.36C114.42 194.94 109.54 194.19 106.57 190.68C104.74 188.51 103.63 185.71 102.61 183.14C102.61 183.14 102.07 183.07 102.07 183.07C102.07 183.07 101.43 183.43 101.43 183.43C101.43 183.43 98.39 186.64 98.39 186.64C97.35 187.54 96.18 188.3 95 189C91.81 190.9 88.69 192.72 85 193.25C82.62 193.59 80.68 194.22 78.25 193.75C75.48 193.21 74.19 193.14 72.18 191.57C69.53 189.51 69.53 188.65 68.14 185.11C67.8 184.22 68.52 183.38 68 182.5C66.68 180.27 63.91 181.79 64.39 178.39C64.8 175.58 64.87 179.29 65.54 177.36C65.54 177.36 66.04 177.46 66.04 177.46C66.37 177.68 67.97 179.42 68.64 178.14C68.64 178.14 70.07 174.07 70.07 174.07C70.07 174.07 71.04 172.79 71.04 172.79C71.04 172.79 71.57 171.32 71.57 171.32C71.57 171.32 72.82 170.32 72.82 170.32C72.82 170.32 74.43 168.18 74.43 168.18C79.9 163.3 87.35 159.35 94.71 162.29C97.68 163.47 98.34 167.83 97.11 170.36C95.79 173.06 93.83 175.14 91.25 176.75C91.25 176.75 87.75 178.5 87.75 178.5C87.75 178.5 86.79 179.29 86.79 179.29C86.79 179.29 85.39 179.64 85.39 179.64C85.39 179.64 84.64 180.57 84.64 180.57C76.99 182.43 93.21 176.41 81.11 180.86C80.13 181.22 79.35 181.99 78.39 182.39C78.39 182.39 78.54 183.21 78.54 183.21C78.84 183.97 79.54 185.04 80.18 185.57C80.18 185.57 82.07 186.68 82.07 186.68C83.55 187.4 84.39 186.11 85.89 186.14C86.81 186.16 87.17 187.16 88.11 186.86C90.97 185.94 94.05 184.62 96.32 182.57C96.32 182.57 97.61 180.86 97.61 180.86C103.43 176.1 93.69 185.18 99.86 178.61C100.52 177.91 101.19 178.12 101.46 177.21C102.11 175.08 101.39 178.05 101.5 172.25C101.5 172.25 101.75 170.75 101.75 170.75C101.57 167.8 101.05 169.61 101.39 168.39C101.39 168.39 102.11 167.61 102.11 167.61C102.11 167.61 102.46 166.46 102.46 166.46C103.92 164.06 105.72 162.31 108.68 162.32C113.19 162.34 113.9 166.56 113.32 170.21C113.32 170.21 112.5 171.25 112.5 171.25C112.5 171.25 111.61 173.86 111.61 173.86C110.74 184.86 111.69 174.13 112.61 179.32C112.61 179.32 112.36 180.71 112.36 180.71C112.38 181.33 113.4 181.8 113.57 182.18C113.57 182.18 113.61 183.89 113.61 183.89C113.71 184.23 114.44 185.96 115.25 186.25C117.21 186.95 118.6 185.35 119.5 183.75C119.5 183.75 119.96 182.21 119.96 182.21C121.71 179.06 119.91 185.07 122.36 177.61C122.78 176.31 122.2 176.92 122.25 175.25C122.51 166.57 121.87 174.11 122.61 169.11C122.72 168.34 122.01 167.71 122.46 166.96C122.46 166.96 123.5 165.75 123.5 165.75C123.5 165.75 124.21 164.21 124.21 164.21C125.25 162.92 127.31 161.04 129.25 161.5C130.59 161.82 131.11 161.58 132.07 162.43C134.09 164.21 133.72 166.34 133.5 168.75C133.5 168.75 133.5 170 133.5 170C133.26 170.94 132.5 171.94 132.5 173C132.53 180.07 132.46 174.26 133.54 178.21C133.54 178.21 133.57 179.43 133.57 179.43C133.88 181.57 135.51 183.92 137.57 184.68C138.35 184.97 139.29 183.69 139.57 183.32C139.65 183.22 140.58 182.02 140.64 181.46C140.64 181.46 140.64 180.39 140.64 180.39C140.64 180.39 141.29 179.54 141.29 179.54C141.93 178.11 142.32 176.58 142.86 175.11C142.86 175.11 143.79 171.29 143.79 171.29C144.2 169.98 145.12 168.7 145.71 167.46C146.76 165.28 145.7 165.66 148.18 163.18C148.67 162.69 151.45 161.4 152.18 161.18C153.84 160.68 154.58 161.36 156.11 161.64C156.11 161.64 157.61 161.71 157.61 161.71C157.61 161.71 158.5 162.5 158.5 162.5C158.5 162.5 160.07 163.43 160.07 163.43C160.07 163.43 160.43 164.25 160.43 164.25ZM88.82 170.57C87.61 166.29 90.87 173.86 88.75 168.75C88.15 167.3 87.24 167.81 86 167.75C84.45 167.68 83.9 167.18 82.5 168.25C80.57 169.74 77.88 172.8 78.32 175.43C78.32 175.43 78.93 176.82 78.93 176.82C79 177.19 79.67 177.2 79.89 177.14C79.89 177.14 81.75 176.5 81.75 176.5C83.59 175.73 86.96 174.57 88 172.5C88 172.5 88.82 170.57 88.82 170.57ZM363.86 172.11C363.8 171.22 364.39 170.12 363.68 169.32C362.8 168.34 361 168.72 360 169.25C358.1 170.27 357.89 170.98 356.64 172.64C355.33 174.4 353.74 175.91 354.14 178.61C354.22 179.13 355.2 178.56 355.71 178.43C355.71 178.43 356.86 178.36 356.86 178.36C359.56 177.67 362.12 175.66 363.43 173.18C363.43 173.18 363.86 172.11 363.86 172.11ZM509.36 174.61C509.36 174.61 509.36 173.64 509.36 173.64C509.09 172.23 507.24 169.87 505.57 170.32C505.57 170.32 504.14 170.89 504.14 170.89C501.4 171.13 503.12 169.73 500.68 171.43C498.17 173.17 499.5 172.7 498.46 174.71C498.46 174.71 497.61 175.86 497.61 175.86C496.42 178.66 496.15 182.76 498.39 185.11C500.51 187.32 503.88 185.96 505.93 184.43C506.86 183.73 507.79 181.94 507.75 180.75C507.75 180.75 507.57 179.32 507.57 179.32C507.57 179.32 508.43 177.93 508.43 177.93C508.84 176.85 508.95 175.68 509.36 174.61ZM431.54 178.04C431.43 177.26 432 176.72 431.25 176C430.95 175.71 430.02 175.72 429.75 175.75C428.79 175.85 426.09 176.29 425.11 176.61C425.11 176.61 423.68 177.43 423.68 177.43C423.68 177.43 422.32 177.32 422.32 177.32C422.32 177.32 419.75 178.25 419.75 178.25C419.75 178.25 418.71 178.96 418.71 178.96C417.59 179.59 417.15 179.4 416.18 180.43C416.18 180.43 414.82 182.32 414.82 182.32C414.82 182.32 413.46 183.71 413.46 183.71C412 185.92 412.54 189.59 413.86 191.64C415.68 194.47 415.57 193.2 417.79 193.71C417.79 193.71 418.86 194.39 418.86 194.39C420.14 194.48 418.45 194.27 420.5 193.89C421.55 193.7 421.28 194.27 422.14 193.89C424.36 192.94 426.16 190.52 427.25 188.5C427.25 188.5 429.18 185.18 429.18 185.18C429.18 185.18 431.54 178.04 431.54 178.04ZM294.36 200.86C292.81 201.11 296.42 199.13 293.61 200.36C290.79 201.58 292.66 200.92 290 202.75C290 202.75 288.68 203.43 288.68 203.43C286.68 204.87 289.21 203.49 287.5 205.25C286.8 205.97 286.39 205.35 285.96 206.21C284.92 208.35 284.63 210.19 286.32 212.18C286.32 212.18 287.43 212.32 287.43 212.32C287.43 212.32 288.39 212.86 288.39 212.86C289.38 213.24 290.63 211.51 291 211C291 211 292.07 208.57 292.07 208.57C293.3 206.11 293.81 203.56 294.36 200.86ZM0.21 206.46C0.21 206.46 0.75 206.25 0.75 206.25C0.75 206.25 261.5 206.25 261.5 206.25C262.54 206.25 263.58 207.14 264.11 207.89C266.6 211.46 262.79 207.14 263.96 209.71C263.96 209.71 263 210 263 210C263 210 0.75 210 0.75 210C0.75 210 0.21 209.79 0.21 209.79C0.21 209.79 0 209.25 0 209.25C-0.07 208.32 0.21 207.4 0.21 206.46ZM316.82 206.39C405.3 206.45 493.77 206.14 582.25 206.25C583.78 206.25 585.57 206.75 585 208.75C584.77 209.56 584.79 210 583.75 210C583.75 210 316 210 316 210C314.85 210 314.28 208.71 315.07 207.82C315.57 207.26 316.28 206.92 316.82 206.39ZM68.61 226.86C72.04 227.54 67.03 225.91 70.36 226.89C72.6 227.56 72.04 227.71 74.29 227.96C75.51 228.1 76.26 226.8 77.54 227.46C78.07 227.74 78.23 228.75 78.25 229.25C78.29 230.18 78.8 233.45 76.75 233.25C76.75 233.25 75.18 232.82 75.18 232.82C74.12 232.35 74.31 230.96 73.04 230.46C73.04 230.46 70 229.75 70 229.75C68.53 229.5 68.79 229.98 67.57 230.32C66.76 230.55 65.22 230.68 65.64 232.11C66.22 234.03 67.14 233.85 68.89 234.36C70.55 234.83 72.22 235.43 73.89 235.86C73.89 235.86 75.43 236.07 75.43 236.07C75.43 236.07 77.5 237.25 77.5 237.25C78.79 237.92 80.44 240.38 79.86 241.86C79.02 243.98 76.91 246.61 74.43 246.93C74.43 246.93 68.75 247 68.75 247C68.08 246.99 67.7 246.32 67.14 246.11C67.14 246.11 65.57 245.82 65.57 245.82C64.94 245.82 63.84 248.23 62.79 246.96C62.79 246.96 62.29 246.71 62.29 246.71C61.31 245.5 61.71 242 61.75 241.25C61.78 240.62 62.48 239.1 63.46 239.54C64 239.78 64.68 239.61 65 240.25C65.9 242.05 64.88 241.44 66.18 242.57C67.98 244.15 69.89 244.48 72.25 244.25C73.05 244.17 75.21 243.65 75.18 242.43C75.17 242 75.53 239.87 74.5 239.5C74.5 239.5 72.11 238.64 72.11 238.64C72.11 238.64 68.14 237.86 68.14 237.86C68.14 237.86 66.89 237.36 66.89 237.36C66.89 237.36 65.39 237.36 65.39 237.36C65.39 237.36 64.46 236.54 64.46 236.54C63.75 236.09 62.92 236.11 62.46 235.29C61.4 233.33 61.46 230.28 63.32 228.82C65.66 226.99 65.49 228.26 68.61 226.86ZM139.11 226.86C139.11 226.86 140.75 226.75 140.75 226.75C143.03 226.81 145.41 227.87 147.57 228.43C148.28 228.61 148.09 227.57 148.32 227.32C149.21 226.39 150.9 226.93 152.18 227.07C152.53 227.11 152.91 227.45 152.93 227.82C153.09 230.61 153.98 232.47 152.14 233.89C152.14 233.89 151.5 234 151.5 234C151.5 234 149.36 233.89 149.36 233.89C147.97 233.59 147.56 231.79 146.25 231.25C141.67 229.34 133.75 228.82 132.11 235.11C132.11 235.11 132 238.25 132 238.25C131.96 239.36 132.92 241.17 133.68 241.82C136.89 244.58 142.67 245.31 146.25 242.75C148.07 241.45 145.73 242.82 149.46 239.21C149.46 239.21 150.11 239.14 150.11 239.14C150.11 239.14 150.86 239.39 150.86 239.39C151.33 239.57 152.99 240.12 152.5 241C151 243.71 149.64 245.08 146.54 246.29C146.54 246.29 145.32 246.32 145.32 246.32C144.51 246.55 144.79 246.99 144 247C144 247 136.54 246.96 136.54 246.96C136.54 246.96 135.07 246.18 135.07 246.18C133 245.39 134.3 246.34 132.57 245.43C130.55 244.36 128.18 241.95 127.46 239.79C127.46 239.79 127.5 236 127.5 236C127.5 236 127.32 234.32 127.32 234.32C127.32 234.32 129.68 230.68 129.68 230.68C130.57 229.53 134.13 227.87 135.25 227.5C136.49 227.09 137.86 227.23 139.11 226.86ZM331.64 228.57C332.7 227.3 332.47 226.86 334.5 227C334.5 227 335.46 227.29 335.46 227.29C335.46 227.29 335.75 228 335.75 228C335.84 229.78 336.35 231.73 335.61 233.36C335.38 233.86 334.27 234 334 234C331.72 234 331.9 232.75 329.79 231.21C329.79 231.21 327.89 230.36 327.89 230.36C327.89 230.36 326.32 230.43 326.32 230.43C324.09 230.15 325.55 229.79 323.64 229.89C320.5 230.06 325.86 230.09 321.71 230.57C321.71 230.57 320.36 230.36 320.36 230.36C318.94 230.73 317.23 232.38 316.46 233.46C316.46 233.46 316.14 234.64 316.14 234.64C316.14 234.64 315.39 236.14 315.39 236.14C315.04 236.96 315.31 237.99 315.86 238.64C315.86 238.64 316.54 239.21 316.54 239.21C317.17 240.75 316.23 240.02 316.79 240.96C318.53 243.93 322.59 244.05 325.5 244.25C327.54 244.39 330.04 242.85 331.36 241.36C332.06 240.56 332.48 239.11 333.54 239.04C334.17 238.99 335.6 239.87 335.89 240.11C335.89 240.11 336.32 240.79 336.32 240.79C335.22 244.05 332.07 245.23 329.07 246.32C329.07 246.32 327.93 246.93 327.93 246.93C327.93 246.93 320.07 246.93 320.07 246.93C320.07 246.93 318.93 246.32 318.93 246.32C316.79 245.93 317.69 245.85 315.18 244.57C315.18 244.57 313.89 244.11 313.89 244.11C313.89 244.11 312 241.5 312 241.5C310.43 238.84 310.71 235.07 312.21 232.46C313.68 229.93 316.65 228.25 319.32 227.32C319.32 227.32 320.89 227.32 320.89 227.32C321.85 227.19 323.35 226.56 324.5 226.75C324.5 226.75 327.14 227.36 327.14 227.36C327.14 227.36 328.64 227.36 328.64 227.36C329.68 227.66 330.6 228.29 331.64 228.57ZM402.86 226.86C405.7 227.32 401.85 226.11 404.61 226.89C407.29 227.65 404.36 227.28 408.54 227.96C409.76 228.17 410.5 226.8 411.79 227.46C412.32 227.74 412.48 228.75 412.5 229.25C412.59 231.34 412.86 232.03 411.43 233.18C411.02 233.51 409.82 232.96 409.5 232.75C408.57 232.14 409.48 232.21 408.64 231.36C408.64 231.36 407.18 230.32 407.18 230.32C405.55 229.3 402.69 229.74 401 230.25C400.33 230.45 399.68 231.55 399.79 232.21C400.1 234.11 402.23 234.26 403.64 234.61C404.93 234.93 406.3 235.41 407.61 235.64C407.61 235.64 409.57 235.75 409.57 235.75C409.57 235.75 410.46 236.54 410.46 236.54C412.78 238.01 412.69 236.9 413.68 240.07C414.46 242.59 412.72 244.58 410.75 245.75C410.75 245.75 408.46 246.96 408.46 246.96C408.46 246.96 403 247 403 247C401.91 246.97 401.44 245.91 400.14 245.86C400.14 245.86 399.46 245.96 399.46 245.96C399.09 246.22 397.93 248.25 397.04 246.96C397.04 246.96 396.43 246.57 396.43 246.57C395.7 245.18 395.94 242.35 396 241.25C396.07 239.91 397.49 239.05 398.75 239.75C399.81 240.34 399.53 241.72 400.43 242.57C402.08 244.13 404.34 244.43 406.5 244.25C406.6 244.24 407.92 244.04 408.18 243.68C408.18 243.68 408.64 242.64 408.64 242.64C408.64 242.64 409.43 241.68 409.43 241.68C409.51 239.09 407.29 239.15 405.36 238.64C405.36 238.64 404.11 238.14 404.11 238.14C400.84 237.28 395.45 236.73 396 232C396 232 396.5 230.25 396.5 230.25C396.79 229.31 398.25 228.5 398.82 228.07C398.82 228.07 402.86 226.86 402.86 226.86ZM474.86 226.86C474.86 226.86 476.5 226.75 476.5 226.75C476.5 226.75 478.93 227.32 478.93 227.32C482.39 227.79 479.26 226.01 484.25 229C490.24 232.6 485.59 229.88 487.36 231.64C487.36 231.64 488.18 232.32 488.18 232.32C489.99 237.93 488.73 228.1 489.25 238.25C489.25 238.25 489.43 239.68 489.43 239.68C489.43 239.68 488.46 240.96 488.46 240.96C488.46 240.96 488.04 242.04 488.04 242.04C486.49 243.69 484.78 245.09 482.68 245.93C482.68 245.93 480.86 246.36 480.86 246.36C480.86 246.36 479.71 246.96 479.71 246.96C479.71 246.96 472.5 247 472.5 247C472.5 247 470.89 246.36 470.89 246.36C467.02 245.1 461.31 241.49 462.43 236.43C462.43 236.43 463.18 234.18 463.18 234.18C463.18 234.18 464.79 231.04 464.79 231.04C464.79 231.04 466.46 229.96 466.46 229.96C466.46 229.96 467.64 228.89 467.64 228.89C470.04 227.58 472.25 227.29 474.86 226.86ZM89.25 239.5C89.25 239.5 89 240.25 89 240.25C88.9 241.38 89.15 242.51 89.11 243.64C90.16 243.97 91.34 244.33 92.36 244.64C91.6 246.62 93.81 243.6 92.29 246.04C91.93 246.6 91.42 246.98 90.75 247C87.87 247.07 84.49 248.51 82.11 246.89C82.11 246.89 81.61 246.39 81.61 246.39C80.99 246.19 81.08 244.97 81.36 244.61C82.24 243.48 84.21 244.6 84.25 242.75C84.25 242.75 84.25 232 84.25 232C84.23 230.43 83.34 230.72 82.21 230.04C81.78 229.77 81.21 228.9 81.11 228.39C81.11 228.39 81.18 227.68 81.18 227.68C81.18 227.68 81.57 227.32 81.57 227.32C81.57 227.32 82.75 227 82.75 227C83.25 226.99 92.18 226.41 95.64 227.36C95.64 227.36 97.43 228.07 97.43 228.07C101.29 229.03 102.88 234.48 99.93 237.18C98.54 238.45 98.6 238.03 97.07 238.82C95.71 239.53 94.72 240.23 93 240C93 240 91 239.25 91 239.25C87.05 238.26 92.44 239.93 89.25 239.5ZM124.46 227.29C124.46 227.29 124.75 228 124.75 228C124.93 230.93 125.65 233.53 122.25 233.25C122.25 233.25 121.32 232.93 121.32 232.93C120.51 232.36 121.44 230.57 120.18 230.32C115.58 229.4 113.67 229.38 110.68 230.93C110.68 230.93 110.5 231.75 110.5 231.75C110.47 232.19 110.29 234.46 110.86 235.14C110.86 235.14 111.75 235.5 111.75 235.5C114.39 235.64 117.81 233.95 119.68 235.82C120.33 236.47 119.73 237.08 119.75 237.75C119.75 237.75 119 238 119 238C116.32 238.08 113.41 237.12 110.96 238.21C110.62 238.37 110.51 239.02 110.5 239.25C110.46 240.04 109.67 243.93 111.75 244C111.75 244 120 244 120 244C120 244 120.75 243.75 120.75 243.75C120.89 242.92 120.9 242.08 121 241.25C121.18 239.77 123.35 239.49 124.39 240.36C124.39 240.36 124.75 241.25 124.75 241.25C124.75 241.25 124.75 245.25 124.75 245.25C124.75 245.25 124.46 246.46 124.46 246.46C124.46 246.46 123.93 246.93 123.93 246.93C123.93 246.93 104 247 104 247C102.88 246.99 102.71 244.93 103.32 244.32C104.1 243.54 106.58 244.67 106.68 243.18C106.68 243.18 106.75 231.75 106.75 231.75C106.47 229.45 104.86 231.1 103.5 230C102.62 229.29 103.21 228.05 103.25 227.25C103.25 227.25 104 227 104 227C104 227 123.5 227 123.5 227C123.5 227 124.46 227.29 124.46 227.29ZM165.46 227.29C164.85 230.88 167.95 222.98 165.5 229.5C165.23 230.22 163.6 230.41 163.32 230.57C162.94 230.79 162.78 231.67 162.75 232C162.75 232 162.75 242.75 162.75 242.75C162.75 242.75 162.93 243.57 162.93 243.57C163.75 244.84 167.31 244.11 168.21 243.96C168.21 243.96 168.93 243.68 168.93 243.68C170.66 242.02 171.02 240.01 172 238C173.14 235.66 174.28 233.31 175.46 230.96C175.58 230.73 175.46 230.42 175.57 230.18C174.39 229.76 173.08 229.91 173 228.25C173 228.25 173.25 227.25 173.25 227.25C173.25 227.25 174 227 174 227C174 227 185.75 227 185.75 227C185.75 227 186.68 227.32 186.68 227.32C186.68 227.32 186.96 228.21 186.96 228.21C187.04 229.91 185.07 229.6 184.07 229.82C184.07 229.82 183.64 230.14 183.64 230.14C183.64 230.14 183.57 230.68 183.57 230.68C184.03 232.22 185.26 233.95 185.93 235.32C185.93 235.32 188.29 240.46 188.29 240.46C188.29 240.46 189.32 241.43 189.32 241.43C189.81 242.26 189.53 243.67 190.82 243.93C192.68 244.3 194.47 243.81 196.25 243.75C196.25 243.75 196.5 243 196.5 243C196.5 243 196.46 231.04 196.46 231.04C196.42 229.67 194.05 230.74 193.57 230.18C192.72 229.19 193.2 228.29 193.25 227.25C193.25 227.25 194 227 194 227C194 227 202.5 227 202.5 227C202.5 227 203.46 227.29 203.46 227.29C203.49 228.1 204.29 229.5 203.04 230.04C202.24 230.38 201.21 230.12 200.86 231.11C199.53 234.84 200.67 239.04 200.75 243C200.75 243 201 243.75 201 243.75C201 243.75 201.75 244 201.75 244C201.75 244 207.25 244 207.25 244C207.48 243.99 208.13 243.87 208.29 243.54C209 241.95 207.81 240.03 208.5 238.5C208.65 238.17 209.04 237.68 209.36 237.86C209.36 237.86 211.75 237.75 211.75 237.75C211.75 237.75 212.68 238.07 212.68 238.07C212.68 238.07 213 239 213 239C213 239 213 245.25 213 245.25C212.99 245.42 212.91 246.95 212.21 246.96C212.21 246.96 183.25 247 183.25 247C182.28 247 181.94 245.29 182.39 244.64C182.97 243.82 184.64 243.87 185.5 243.57C185.5 243.57 185.5 243 185.5 243C185.5 243 184.21 241.29 184.21 241.29C182.6 239.5 179.4 241.13 177 241C176.43 240.97 175.89 240.67 175.32 240.64C174.92 241.29 174.39 241.86 174.04 242.54C172.4 245.71 175.07 240.57 173.89 243.61C174.63 243.92 175.94 243.89 176.36 244.64C176.69 245.24 176.33 246.94 175.46 246.96C175.46 246.96 156.25 247 156.25 247C156.25 247 155.57 246.68 155.57 246.68C155.12 246.63 155.24 244.86 155.36 244.61C156.03 243.19 158.23 244.6 158.25 242.5C158.25 242.5 158.25 232.25 158.25 232.25C158.24 231.5 157.98 230.55 157.18 230.32C156.72 230.19 155.66 230.28 155.43 229.57C153.17 222.66 156.05 230.96 155.54 227.29C155.54 227.29 156.5 227 156.5 227C156.5 227 164.5 227 164.5 227C164.5 227 165.46 227.29 165.46 227.29ZM233.39 228.04C233.39 228.04 233.25 228.75 233.25 228.75C233.25 228.75 231.86 230.11 231.86 230.11C231.32 230.38 230.61 230.06 230.07 230.32C230.07 230.32 229.75 231.25 229.75 231.25C229.66 232.26 229.12 235.2 231 235.25C231 235.25 238.75 235.25 238.75 235.25C238.75 235.25 239.71 234.96 239.71 234.96C239.71 234.96 240 234.25 240 234.25C240 234.25 239.93 231.07 239.93 231.07C239.8 230.03 238.46 230.59 238.18 229.82C238.18 229.82 237.75 228.25 237.75 228.25C237.71 227.41 238.23 227.03 239 227C239 227 246.75 227 246.75 227C249.33 227.24 246.23 227.2 248 228.25C248 228.25 247.57 229.82 247.57 229.82C247.26 230.41 245.68 230.35 245.46 230.46C245.46 230.46 244.86 231.36 244.86 231.36C243.23 234.86 244.1 239.52 244.86 243.39C244.92 243.73 245.23 243.88 245.54 243.96C248.01 244.64 247.99 244.39 251.14 243.89C251.14 243.89 251.46 243.71 251.46 243.71C251.93 243.51 251.85 242.78 252.07 242.32C252.07 242.32 253.46 239.71 253.46 239.71C254.28 237.95 255.09 236.2 255.96 234.46C259.62 227.21 253.29 239.57 256.5 232.25C256.82 231.52 257.33 230.89 257.61 230.14C256.53 229.59 255.18 229.6 255.25 228C255.25 228 255.54 227.29 255.54 227.29C255.54 227.29 256.5 227 256.5 227C256.5 227 267.5 227 267.5 227C267.5 227 268.46 227.29 268.46 227.29C268.46 227.29 268.75 228.25 268.75 228.25C268.72 229.69 267.07 229.75 266.14 230.14C266.14 230.14 266.11 230.89 266.11 230.89C267.34 235.18 266.09 229.74 267.54 233.21C267.54 233.21 268 235.25 268 235.25C268 235.25 269.21 237.04 269.21 237.04C269.21 237.04 270.04 239.46 270.04 239.46C270.04 239.46 270.93 240.82 270.93 240.82C270.93 240.82 271.79 242.71 271.79 242.71C273.8 244.76 271.33 243.02 274.75 244.25C275.51 244.52 275.26 246.45 274.82 246.57C274.82 246.57 274.21 246.96 274.21 246.96C274.21 246.96 265.79 246.96 265.79 246.96C264.87 246.95 264.87 244.97 265.21 244.46C265.65 243.84 266.89 243.79 267.54 243.54C267.35 243.07 267.51 241.06 266.54 240.96C260.84 240.39 260.7 241.59 257.36 240.43C255.94 244.29 257.99 235.13 256.14 242.64C256.14 242.64 256.21 243.54 256.21 243.54C256.71 243.83 257.32 243.89 257.82 244.18C258.69 244.67 258.6 246.82 257.46 246.96C247.52 248.21 251.73 247.97 247.93 246.32C247.42 246.1 247.05 246.99 246.5 247C243.74 247.04 240.98 246.82 238.21 246.79C238.13 246.01 237.18 244.63 238.39 244.14C238.39 244.14 239.75 243.75 239.75 243.75C239.75 243.75 240 243 240 243C240 243 240 239 240 239C240 239 239.75 238.25 239.75 238.25C239.75 238.25 239 238 239 238C239 238 230.75 238 230.75 238C230.75 238 230 238.25 230 238.25C230 238.25 229.75 239 229.75 239C229.75 239 229.75 243 229.75 243C229.75 243 230 243.75 230 243.75C230 243.75 232.61 244.39 232.61 244.39C232.61 244.39 233.29 244.89 233.29 244.89C233.29 244.89 233.25 245.5 233.25 245.5C231.98 248.71 224.42 247.01 223.75 247C223.41 246.99 222.96 246.77 222.82 246.43C222.82 246.43 222.5 245.25 222.5 245.25C222.43 243.29 225.62 244.82 225.68 243.18C225.68 243.18 225.75 231.5 225.75 231.5C225.75 231.39 225.62 230.56 225.29 230.46C224.6 230.26 223.4 230.37 222.86 229.64C222.06 228.59 222.2 227.03 223.75 227C223.75 227 231.25 227 231.25 227C231.25 227 233.04 227.46 233.04 227.46C233.04 227.46 233.39 228.04 233.39 228.04ZM283.25 230.5C283.25 230.5 283 231.25 283 231.25C283 231.25 283 243 283 243C283.02 244.22 284.42 243.86 285.14 244.36C285.6 244.67 285.64 246.52 284.96 246.71C280.82 247.88 295.41 247.48 276.79 246.96C276.02 246.94 275.79 245.25 276 244.75C276.36 243.89 277.83 243.94 278.5 243.75C278.5 243.75 278.75 243 278.75 243C278.75 243 278.75 231 278.75 231C278.75 231 278.54 230.46 278.54 230.46C277.29 230.05 275.86 230.09 276 228.25C276 228.25 276.29 227.29 276.29 227.29C276.29 227.29 277.25 227 277.25 227C279.84 226.91 282.7 226.08 285.04 227.21C286.03 227.7 285.6 229.61 284.79 230.04C284.79 230.04 283.25 230.5 283.25 230.5ZM302.64 237.57C302.97 238.07 302.89 238.77 303.25 239.25C303.25 239.25 304.54 240.46 304.54 240.46C305.16 241.39 305.41 242.87 306.32 243.68C307.2 244.45 308.17 243.51 309.14 244.11C309.9 244.57 310.3 245.84 309.57 246.57C309.29 246.85 309.24 246.98 308.75 247C305.26 247.14 304.64 247.7 302.75 245C302.75 245 301 242 301 242C301 242 299.86 240.39 299.86 240.39C299.86 240.39 298.96 239.54 298.96 239.54C298.65 239.08 298.09 237.27 296.96 237.79C295.91 238.27 295.87 237.45 294.96 238.46C294.01 239.53 294.68 241.32 294.75 242.75C294.75 242.82 294.88 243.7 295.21 243.79C295.23 243.79 297.42 243.83 297.79 244.46C297.94 244.74 298.26 246.5 297.68 246.68C292.59 248.22 317.92 247.35 288.25 247C287.27 246.99 286.67 245.23 287.29 244.54C288.02 243.71 289.48 244 290.5 243.75C290.5 243.75 290.75 243 290.75 243C290.75 243 290.75 231.25 290.75 231.25C290.75 231.25 290.5 230.5 290.5 230.5C289.56 230.27 288.48 230.42 287.68 229.82C286.48 228.92 286.94 227 288.5 227C314.06 227.05 294.24 226.27 302.14 227.36C305.22 227.78 308.82 231.29 306.79 234.54C305.69 236.29 304.43 236.59 302.64 237.57ZM348.75 227.25C348.74 228.22 349.15 228.58 348.71 229.71C348.25 230.92 347 229.98 346.75 231.5C346.75 231.5 346.75 241 346.75 241C346.75 241 346.32 242.5 346.32 242.5C346.25 243.92 349.43 244.31 350 244.5C350 244.5 351.75 244.5 351.75 244.5C352.52 244.45 354.05 244.27 354.68 243.68C354.68 243.68 355.14 242.89 355.14 242.89C356.43 238.34 356.33 236.27 355.89 230.86C355.84 230.17 353.39 229.92 352.82 229.43C350.99 227.86 353.66 229.49 352.39 227.64C352.39 227.64 352.82 227.32 352.82 227.32C352.82 227.32 354.5 227 354.5 227C354.5 227 363.14 227.11 363.14 227.11C370.35 227.11 377.55 226.89 384.75 227C387.7 227.04 383.85 227.4 386 228.25C386 228.25 386 233 386 233C385.99 233.48 385.77 234.72 385.29 235.04C385.29 235.04 383.86 235.36 383.86 235.36C383.86 235.36 383.14 235.36 383.14 235.36C382.33 235.13 381.55 234.82 381.36 233.89C381.16 232.95 381.73 231.14 380.57 230.43C380.02 230.09 377.98 230.3 377.82 230.32C377.82 230.32 377.32 230.57 377.32 230.57C375.62 235.83 375.9 227.01 376.82 243.18C376.9 244.53 379.39 243.92 380.21 244.54C381.16 245.25 379.89 246.97 379 247C379 247 370.29 246.96 370.29 246.96C369.41 246.89 369.17 245.22 369.39 244.64C370.01 243.05 372.17 244.89 372.25 242.5C372.73 227.1 372.97 236.15 371.96 231.04C371.68 229.59 368.33 229.98 367.82 231.07C365.37 236.3 368.98 231.85 367.18 234.68C367.18 234.68 366.57 235.32 366.57 235.32C363.58 236.78 364.09 232.02 363.89 230.86C363.89 230.86 363.5 230.25 363.5 230.25C362.5 230.25 361.5 230.25 360.5 230.25C360.48 230.7 360 231.05 360 231.5C360 231.85 361.43 241.52 359.07 244.57C358.38 245.47 356.67 245.92 355.82 246.32C355.82 246.32 354.71 246.96 354.71 246.96C352.28 247.25 348.2 247.03 345.36 246.89C344.65 246.11 343.92 245.33 343.18 244.57C339.14 240.43 342 238.07 341 231.5C340.76 229.96 339.49 230.84 339 229.75C336.37 223.94 339.59 231.04 338.82 227.32C338.82 227.32 339.75 227 339.75 227C339.75 227 348 227 348 227C348 227 348.75 227.25 348.75 227.25ZM434.46 227.29C434.46 227.29 434.75 228.25 434.75 228.25C434.72 229.75 433.38 229.5 432.43 229.93C432.43 229.93 432.14 230.32 432.14 230.32C432.41 230.94 432.93 231.43 433.21 232.04C433.21 232.04 433.82 234.18 433.82 234.18C434.41 235.56 435.41 236.87 436.04 238.21C436.67 239.57 437.32 240.92 438 242.25C438 242.25 438.57 243.68 438.57 243.68C439.99 244.98 443.22 243.81 444.75 243.75C444.75 243.75 445 243 445 243C445.08 239.04 446.08 234.89 444.89 231.11C444.41 229.57 442.43 230.86 441.61 229.64C440.82 228.48 441.57 228.25 441.54 227.29C441.54 227.29 442.5 227 442.5 227C442.5 227 451 227 451 227C451 227 451.96 227.29 451.96 227.29C451.42 231.56 454.64 220.93 451.96 229.71C451.79 230.3 450.52 230.42 450.32 230.57C449.96 230.84 449.75 231.85 449.75 232.25C449.75 232.25 449.82 243.18 449.82 243.18C449.82 243.18 450.21 243.79 450.21 243.79C450.21 243.79 451 244 451 244C451 244 455 244 455 244C455 244 455.75 243.75 455.75 243.75C455.88 242.17 455.81 240.57 456 239C456.2 237.41 457.66 237.68 459 237.75C459.38 237.77 460.17 237.96 460.43 238.32C461.66 240.08 460.9 242.61 460.75 244.75C460.73 245.02 460.5 246.77 459.71 246.96C450.79 249.2 440.03 251.57 432.11 246.89C431.31 246.42 431.04 244.71 432 244.25C432.58 243.97 433.22 243.84 433.79 243.54C432.91 240.43 435.14 245.86 433.64 242.11C433.4 241.5 432.93 241.01 432.64 240.43C421.04 241.01 450.25 241.97 426.25 241C425.14 240.95 425.72 240.69 424.79 240.21C423.27 239.44 422.58 242.08 422.36 242.86C422.36 242.86 422.43 243.57 422.43 243.57C423.17 243.93 424.45 243.81 424.79 244.71C425 245.28 424.88 246.94 423.96 246.96C423.96 246.96 415.04 246.96 415.04 246.96C415.04 246.96 414.5 246.5 414.5 246.5C413.89 246.34 414.24 244.49 414.75 244.25C416.06 243.63 417.43 244.48 418.21 242.96C428.6 222.85 413.69 251.44 420.5 237.5C420.5 237.5 421.93 235.18 421.93 235.18C421.93 235.18 422.46 233.21 422.46 233.21C422.46 233.21 423.5 232 423.5 232C424.06 231.22 423.82 230.93 424.04 230.21C423.09 229.82 421.28 229.73 421.25 228.25C421.25 228.25 421.54 227.29 421.54 227.29C421.54 227.29 422.5 227 422.5 227C422.5 227 433.5 227 433.5 227C433.5 227 434.46 227.29 434.46 227.29ZM510.64 240.82C510.65 240.52 511 240.3 511 240C511 240 510.89 231.11 510.89 231.11C510.83 229.73 508.97 230.88 508.39 230.11C508 229.58 507.19 227.67 508.21 227.21C511.12 225.91 514.57 226.92 517.75 227C519.52 227.04 517.94 227.71 519 228.25C519.2 228.35 518.69 229.84 518.5 230C517.58 230.8 514.73 229.49 514.68 231.43C514.68 231.43 514.75 244.75 514.75 244.75C514.74 245.45 514.3 246.09 514.29 246.79C512.96 246.79 511.31 247.55 509.96 246.79C509.96 246.79 508.96 244.79 508.96 244.79C508.37 243.9 507.64 243.11 507 242.25C504.3 238.65 501.68 234.57 498.57 231.46C498.57 231.46 498.25 232.25 498.25 232.25C498.25 232.25 498.25 243 498.25 243C498.25 243 498.5 243.75 498.5 243.75C499.61 244.02 501.02 243.78 501.93 244.57C502.78 245.31 501.69 246.98 500.75 247C500.75 247 492.25 247 492.25 247C491.2 246.9 490.81 244.95 491.61 244.36C492.35 243.8 493.56 243.92 494.46 243.71C494.46 243.71 494.75 243 494.75 243C494.75 243 494.75 231.25 494.75 231.25C494.75 231.25 494.5 230.5 494.5 230.5C493.03 230.19 491.35 230.48 491.25 228.5C491.1 225.74 491.33 229.45 491.54 227.29C491.54 227.29 492.5 227 492.5 227C495.01 226.91 497.74 226.2 500.04 227.21C500.04 227.21 500.75 228 500.75 228C500.75 228 503.43 231.82 503.43 231.82C504.48 233.2 505.67 234.43 506.71 235.79C506.71 235.79 508.07 237.93 508.07 237.93C508.07 237.93 508.89 238.61 508.89 238.61C509.68 239.66 509.15 239.8 510.11 240.64C510.11 240.64 510.64 240.82 510.64 240.82ZM302.86 232.36C302.55 231.87 302.66 230.41 301.61 230.39C301.61 230.39 300.11 230.64 300.11 230.64C299.01 230.61 294.78 229.05 294.75 231.5C294.75 231.5 294.82 234.18 294.82 234.18C295.64 235.42 296.5 234.9 298 235C298 235 299.29 235.21 299.29 235.21C299.29 235.21 300.54 235.04 300.54 235.04C302.39 234.65 301.98 233.91 302.86 232.36ZM258.89 237.11C258.89 237.11 259.25 237.5 259.25 237.5C259.25 237.5 260.25 237.75 260.25 237.75C260.25 237.75 264 237.75 264 237.75C264.31 237.74 264.54 237.38 264.86 237.36C264.86 237.36 264.89 236.61 264.89 236.61C264.89 236.61 264.04 235.21 264.04 235.21C262.05 230.45 265.82 237.5 262.82 231.43C261.55 228.85 263.19 233 261.57 230.82C261.57 230.82 261.04 231.29 261.04 231.29C259.18 234.25 261.99 230.34 260.61 233.61C260.61 233.61 259.71 234.46 259.71 234.46C258.96 235.55 259.2 236.11 258.89 237.11ZM96.57 233.57C96.51 232.71 97.07 231.93 96.39 231.11C95.44 229.95 94.47 230.51 93.25 230.5C92.28 230.49 89.05 229.42 89 231.5C89 231.5 89.07 236.18 89.07 236.18C89.4 237.14 91.59 236.78 92 236.75C92 236.75 93.5 236.5 93.5 236.5C94.43 236.44 95.77 236.75 96.29 235.54C96.54 234.93 96.33 234.19 96.57 233.57ZM467.64 234.93C467.64 234.93 467.5 237.25 467.5 237.25C467.63 239.88 467.65 238.74 468.54 240.46C468.9 241.17 468.81 241.6 469.43 242.07C472.78 244.59 477.79 245.44 481.5 243C482.61 242.27 484.1 241.04 484.39 239.64C484.39 239.64 484.25 237 484.25 237C484.25 237 484.68 235.32 484.68 235.32C484.2 233.25 481.85 230.76 479.68 230.32C479.68 230.32 478.32 230.61 478.32 230.61C478.32 230.61 477.14 230.11 477.14 230.11C474.8 229.64 475.7 230.15 473.46 230.46C471.32 230.76 472.96 229.8 470.57 231.07C469.63 231.58 468.87 232.4 468.25 233.25C467.9 233.73 467.96 234.42 467.64 234.93ZM176.89 237.11C176.89 237.11 177.25 237.5 177.25 237.5C177.25 237.5 178.25 237.75 178.25 237.75C179.31 237.83 180.87 237.9 181.96 237.46C181.96 237.46 182.36 237.11 182.36 237.11C180.52 232 185.42 242.12 181.71 234.04C181.24 233 180.43 231.92 179.86 230.96C177.73 233.93 180.88 227.46 178.75 231.5C177.79 233.31 177.34 235.21 176.89 237.11ZM431.11 237.11C431.11 237.11 431.14 236.36 431.14 236.36C431.14 236.36 429.79 233.96 429.79 233.96C429.01 232.09 429.85 232.3 428.82 230.68C428.82 230.68 428.29 230.36 428.29 230.36C428.14 230.66 427.66 230.72 427.54 231.04C423.54 241.03 427.94 231.53 425.5 235.5C424 237.94 426.17 234.82 425.14 237.36C425.46 237.38 425.69 237.74 426 237.75C426 237.75 429.75 237.75 429.75 237.75C429.75 237.75 430.75 237.5 430.75 237.5C430.75 237.5 431.11 237.11 431.11 237.11Z"></path></svg>